<svg width="50" height="50" viewBox="0 0 50 50" fill="none" xmlns="http://www.w3.org/2000/svg">
<rect width="50" height="50" fill="#006E9E"/>
<path d="M44.8663 21.4595L38.4364 15.1335C38.3502 15.0487 38.2355 15.002 38.1135 15.002C37.9916 15.002 37.8769 15.0487 37.7907 15.1335L31.5573 21.2657L25.3238 15.1335C25.2376 15.0487 25.123 15.002 25.001 15.002C24.879 15.002 24.7644 15.0487 24.6781 15.1335L18.4447 21.2657L12.2098 15.1335C12.1236 15.0487 12.0089 15.002 11.887 15.002C11.765 15.002 11.6503 15.0487 11.5641 15.1335L5.13374 21.459C5.04752 21.5438 5 21.6566 5 21.7766C5 21.8966 5.04752 22.0094 5.13374 22.0942L11.6268 28.4818L11.6327 28.4876L18.1209 34.8704C18.2071 34.9552 18.3217 35.002 18.4437 35.002C18.5657 35.002 18.6803 34.9552 18.7666 34.8704L25 28.7382L31.2334 34.8704C31.3197 34.9552 31.4343 35.002 31.5563 35.002C31.6783 35.002 31.7929 34.9552 31.8791 34.8704L38.3722 28.4828L44.8663 22.0942C44.9525 22.0094 45 21.8966 45 21.7766C45 21.6566 44.9525 21.5443 44.8663 21.4595ZM25 15.8381L31.037 21.7771L25 27.716L20.974 23.7554L18.963 21.7771L25 15.8381ZM11.887 15.8381L17.9239 21.7771L13.898 25.7376L11.887 27.716L5.84997 21.7771L11.887 15.8381ZM18.4432 34.1658L12.4062 28.2269L16.4322 24.2663L18.4432 22.2879L22.4692 26.2485L24.4802 28.2269L18.4432 34.1658ZM31.5568 34.1658L25.5198 28.2269L31.5568 22.2879L37.5938 28.2269L31.5568 34.1658ZM38.113 27.716L32.0761 21.7771L38.113 15.8381L44.15 21.7771L38.113 27.716Z" fill="#FAFBFB"/>
<path d="M45 21.7764C44.9999 21.6564 44.9524 21.5438 44.8662 21.459L38.4365 15.1338C38.3503 15.049 38.2353 15.002 38.1133 15.002C37.9914 15.002 37.8772 15.049 37.791 15.1338L31.5576 21.2656L25.3242 15.1338C25.238 15.049 25.123 15.002 25.001 15.002C24.879 15.002 24.764 15.049 24.6777 15.1338L18.4443 21.2656L12.21 15.1338C12.1237 15.049 12.0087 15.002 11.8867 15.002C11.7648 15.002 11.6506 15.049 11.5645 15.1338L5.13379 21.459L5.07617 21.5273C5.02648 21.6004 5.00004 21.6865 5 21.7764C5 21.8963 5.04769 22.0089 5.13379 22.0938L11.627 28.4814L11.6328 28.4873L18.1211 34.8701C18.2072 34.9549 18.3215 35.0019 18.4434 35.002C18.5349 35.002 18.6229 34.9758 18.6973 34.9268L18.7666 34.8701L25 28.7383L31.2334 34.8701C31.2981 34.9338 31.379 34.9761 31.4668 34.9932L31.5566 35.002C31.6785 35.0019 31.7928 34.9549 31.8789 34.8701L44.8662 22.0938C44.9523 22.0089 45 21.8963 45 21.7764ZM24.4805 28.2266L18.4434 34.166L12.4062 28.2266L18.4434 22.2881L24.4805 28.2266ZM37.5938 28.2266L31.5566 34.166L25.5195 28.2266L31.5566 22.2881L37.5938 28.2266ZM12.9756 28.2266L18.4424 33.6045L23.9092 28.2266L18.4434 22.8486L12.9756 28.2266ZM26.0898 28.2266L31.5566 33.6045L37.0234 28.2266L31.5566 22.8486L26.0898 28.2266ZM17.9238 21.7773L11.8867 27.7158L5.84961 21.7773L11.8867 15.8379L17.9238 21.7773ZM31.0371 21.7773L25 27.7158L18.9629 21.7773L25 15.8379L31.0371 21.7773ZM44.1504 21.7773L38.1133 27.7158L32.0762 21.7773L38.1133 15.8379L44.1504 21.7773ZM6.41992 21.7764L11.8857 27.1543L17.3535 21.7764L11.8867 16.3984L6.41992 21.7764ZM19.5322 21.7764L25 27.1543L30.4668 21.7764L25 16.3984L19.5322 21.7764ZM32.6455 21.7764L38.1123 27.1543L43.5791 21.7764L38.1123 16.3984L32.6455 21.7764ZM45.4004 21.7764C45.4004 22.0046 45.3083 22.2196 45.1465 22.3789L32.1592 35.1553C31.9976 35.3142 31.7825 35.4023 31.5566 35.4023C31.3306 35.4023 31.1148 35.3143 30.9531 35.1553L25 29.2988L19.0469 35.1553C18.8852 35.3143 18.6694 35.4023 18.4434 35.4023C18.2175 35.4023 18.0024 35.3142 17.8408 35.1553L11.3525 28.7725L11.3467 28.7666L4.85352 22.3789C4.69165 22.2196 4.59961 22.0046 4.59961 21.7764C4.59966 21.5482 4.69166 21.3331 4.85352 21.1738L11.2832 14.8486C11.4448 14.6896 11.6608 14.6016 11.8867 14.6016C12.1128 14.6016 12.3286 14.6896 12.4902 14.8486L18.4443 20.7041L24.3975 14.8486C24.5591 14.6896 24.7749 14.6016 25.001 14.6016C25.227 14.6016 25.4428 14.6896 25.6045 14.8486L31.5566 20.7041L37.5098 14.8486C37.6714 14.6896 37.8873 14.6016 38.1133 14.6016C38.3393 14.6016 38.5551 14.6896 38.7168 14.8486L45.1455 21.1738C45.307 21.3327 45.4003 21.5477 45.4004 21.7764Z" fill="white"/>
</svg>
