<svg width="69" height="48" viewBox="0 0 69 48" fill="none" xmlns="http://www.w3.org/2000/svg">
<path d="M12.0327 39.8325H13.5783L14.5995 43.5504L15.7725 39.8325H17.0329L18.1262 43.5504L19.2233 39.8325H20.7681L18.9381 45.6467H17.3932L16.3628 42.2791L15.2696 45.6467H13.7247L12.0327 39.8325Z" fill="#006E9E"/>
<path d="M27.7449 39.8325H26.2039V45.6475H27.7449V39.8325Z" fill="#006E9E"/>
<path d="M33.2471 39.8325H36.4885V41.0825H34.7214L34.7298 42.0746H36.4218V43.3253H34.7467V44.3174H36.4885V45.6467H33.2471V39.8325Z" fill="#006E9E"/>
<path d="M41.8406 42.6919C41.8406 40.7413 43.4322 39.6821 44.9977 39.6821C45.5589 39.6821 46.2704 39.9652 46.2704 39.9652V41.7158C46.2704 41.7158 45.8602 41.0824 45.0644 41.0824C44.2019 41.0824 43.3977 41.6662 43.3977 42.6911C43.3977 43.8747 44.537 44.3081 44.8965 44.3081C45.7675 44.3081 46.2704 43.6999 46.2704 43.6999V45.4253C46.2704 45.4253 46.0021 45.7863 44.9471 45.7863C43.8922 45.7863 41.8398 45.0331 41.8398 42.6911L41.8406 42.6919Z" fill="#006E9E"/>
<path d="M51.707 39.8325H53.2565L53.2649 42.1417L55.0321 39.8325H56.8621L54.6004 42.592L57.0668 45.6467H55.1034L53.2649 43.1994V45.6467H51.707V39.8325Z" fill="#006E9E"/>
<path d="M65.6405 12.1635L55.578 2.14681C55.4431 2.0125 55.2637 1.93848 55.0728 1.93848C54.8819 1.93848 54.7025 2.0125 54.5675 2.14681L44.8125 11.8567L35.0574 2.14681C34.9225 2.0125 34.7431 1.93848 34.5522 1.93848C34.3613 1.93848 34.1819 2.0125 34.0469 2.14681L24.2919 11.8567L14.5345 2.14681C14.3996 2.0125 14.2202 1.93848 14.0293 1.93848C13.8384 1.93848 13.659 2.0125 13.524 2.14681L3.46076 12.1627C3.32583 12.297 3.25146 12.4756 3.25146 12.6656C3.25146 12.8556 3.32583 13.0342 3.46076 13.1685L13.6222 23.2828L13.6314 23.292L23.7851 33.3987C23.92 33.533 24.0994 33.607 24.2903 33.607C24.4812 33.607 24.6606 33.533 24.7956 33.3987L34.5506 23.6888L44.3057 33.3987C44.4406 33.533 44.62 33.607 44.8109 33.607C45.0018 33.607 45.1812 33.533 45.3162 33.3987L55.4776 23.2844L65.6405 13.1685C65.7754 13.0342 65.8498 12.8556 65.8498 12.6656C65.8498 12.4756 65.7754 12.297 65.6405 12.1627V12.1635ZM34.5506 3.26248L43.9983 12.6664L34.5506 22.0702L28.2502 15.799L25.103 12.6664L34.5506 3.26248ZM14.0293 3.26248L23.4769 12.6664L17.1764 18.9377L14.0293 22.0702L4.58163 12.6664L14.0293 3.26248ZM24.2896 32.283L14.8419 22.8791L21.1424 16.6079L24.2896 13.4753L30.59 19.7466L33.7372 22.8791L24.2896 32.283ZM44.8117 32.283L35.3641 22.8791L44.8117 13.4753L54.2593 22.8791L44.8117 32.283ZM55.072 22.0702L45.6244 12.6664L55.072 3.26248L64.5196 12.6664L55.072 22.0702Z" fill="#006E9E"/>
</svg>
