<svg width="93" height="48" viewBox="0 0 93 48" fill="none" xmlns="http://www.w3.org/2000/svg">
<path d="M92.6891 15.3527L77.7396 0.314719C77.5391 0.113082 77.2726 0.00195312 76.989 0.00195312C76.7054 0.00195312 76.4388 0.113082 76.2384 0.314719L61.7456 14.8921L47.2529 0.314719C47.0524 0.113082 46.7859 0.00195312 46.5023 0.00195312C46.2187 0.00195312 45.9521 0.113082 45.7517 0.314719L31.2589 14.8921L16.7628 0.314719C16.5623 0.113082 16.2958 0.00195312 16.0122 0.00195312C15.7286 0.00195312 15.462 0.113082 15.2616 0.314719L0.310949 15.3515C0.110484 15.5532 0 15.8213 0 16.1065C0 16.3918 0.110484 16.6599 0.310949 16.8615L15.4074 32.0461L15.421 32.0599L30.506 47.233C30.7065 47.4346 30.973 47.5458 31.2567 47.5458C31.5403 47.5458 31.8068 47.4346 32.0073 47.233L46.5 32.6556L60.9927 47.233C61.1932 47.4346 61.4597 47.5458 61.7433 47.5458C62.027 47.5458 62.2935 47.4346 62.494 47.233L77.5904 32.0484L92.6891 16.8615C92.8895 16.6599 93 16.3918 93 16.1065C93 15.8213 92.8895 15.5532 92.6891 15.3515V15.3527ZM46.5 1.98968L60.536 16.1077L46.5 30.2257L37.1396 20.8106L32.464 16.1077L46.5 1.98968ZM16.0122 1.98968L30.0482 16.1077L20.6878 25.5227L16.0122 30.2257L1.97618 16.1077L16.0122 1.98968ZM31.2555 45.558L17.2195 31.4401L26.5799 22.025L31.2555 17.3221L40.6159 26.7371L45.2915 31.4401L31.2555 45.558ZM61.7445 45.558L47.7085 31.4401L61.7445 17.3221L75.7805 31.4401L61.7445 45.558ZM76.9878 30.2257L62.9518 16.1077L76.9878 1.98968L91.0238 16.1077L76.9878 30.2257Z" fill="#191E29"/>
</svg>
