<svg width="159" height="136" viewBox="0 0 159 136" fill="none" xmlns="http://www.w3.org/2000/svg">
<path d="M25 70H135V125C135 126.326 134.473 127.598 133.536 128.536C132.598 129.473 131.326 130 130 130H30C28.6739 130 27.4021 129.473 26.4645 128.536C25.5268 127.598 25 126.326 25 125V70Z" stroke="#D8DADC" stroke-width="1.5" stroke-linecap="round" stroke-linejoin="round"/>
<path d="M25.2704 70.0001L130.002 42.3563L124.902 23.6063C124.55 22.3547 123.718 21.2924 122.588 20.65C121.458 20.0075 120.12 19.8369 118.864 20.1751L23.6579 45.2938C23.0357 45.4523 22.4512 45.7327 21.9382 46.1189C21.4252 46.505 20.994 46.9891 20.6695 47.5432C20.3451 48.0973 20.1339 48.7103 20.0483 49.3466C19.9626 49.9829 20.0041 50.6299 20.1704 51.2501L25.2704 70.0001Z" stroke="#D8DADC" stroke-width="1.5" stroke-linecap="round" stroke-linejoin="round"/>
<path d="M42.3188 40.3687L72.1875 57.6187" stroke="#D8DADC" stroke-width="1.5" stroke-linecap="round" stroke-linejoin="round"/>
<path d="M79.1313 30.6562L109 47.9" stroke="#D8DADC" stroke-width="1.5" stroke-linecap="round" stroke-linejoin="round"/>
</svg>
