<svg width="159" height="160" viewBox="0 0 159 160" fill="none" xmlns="http://www.w3.org/2000/svg">
<path d="M80 140C113.137 140 140 113.137 140 80C140 46.8629 113.137 20 80 20C46.8629 20 20 46.8629 20 80C20 113.137 46.8629 140 80 140Z" stroke="#D8DADC" stroke-width="1.5" stroke-linecap="round" stroke-linejoin="round"/>
<path d="M80 100C93.8071 100 105 88.8071 105 75C105 61.1929 93.8071 50 80 50C66.1929 50 55 61.1929 55 75C55 88.8071 66.1929 100 80 100Z" stroke="#D8DADC" stroke-width="1.5" stroke-linecap="round" stroke-linejoin="round"/>
<path d="M39.875 124.606C43.6369 117.196 49.3772 110.973 56.4596 106.626C63.542 102.279 71.6899 99.9775 80 99.9775C88.3101 99.9775 96.458 102.279 103.54 106.626C110.623 110.973 116.363 117.196 120.125 124.606" stroke="#D8DADC" stroke-width="1.5" stroke-linecap="round" stroke-linejoin="round"/>
</svg>
