<svg width="96" height="48" viewBox="0 0 96 48" fill="none" xmlns="http://www.w3.org/2000/svg">
<path fill-rule="evenodd" clip-rule="evenodd" d="M84.7616 29.9251H84.5788V30.3507H84.751C84.9087 30.3507 85.0065 30.2836 85.0065 30.1379C85.0065 29.9977 84.9197 29.9251 84.7616 29.9251ZM85.1325 31.1628L84.7144 30.547H84.5788V31.1408H84.3384V29.7013H84.7616C85.0552 29.7013 85.2505 29.8515 85.2505 30.1209C85.2505 30.3282 85.1426 30.4624 84.9684 30.519L85.3705 31.1068L85.1325 31.1628ZM84.7676 29.3153C84.1807 29.3153 83.7149 29.7289 83.7149 30.4689C83.7149 31.2014 84.1807 31.6165 84.7676 31.6165C85.3599 31.6165 85.8268 31.2014 85.8268 30.4689C85.8268 29.7289 85.3549 29.3153 84.7676 29.3153ZM84.7676 31.7682C84.0417 31.7682 83.5357 31.2465 83.5357 30.4689C83.5357 29.6953 84.0507 29.1621 84.7676 29.1621C85.4955 29.1621 86 29.6893 86 30.4689C86 31.2425 85.4839 31.7682 84.7676 31.7682ZM21.1053 24.9148H17.3568C17.5903 24.5312 21.1053 18.6366 21.1053 18.6366V24.9148ZM19.5049 16.0005L10 31.7672H13.2314C13.2314 31.7672 15.5752 27.8423 15.656 27.7081H21.1103L21.1123 31.7692L24.1795 31.7687V16H19.5049V16.0005ZM26.3552 16V31.7692H29.3361V16.0005L26.3552 16ZM31.5057 16H34.4821V31.7692H31.5057V16ZM41.0423 24.3219C39.4208 23.8853 39.0819 23.64 39.1246 22.9435C39.1598 22.3117 39.6582 21.9482 40.4911 21.9482C41.5212 21.9482 42.7807 22.3227 43.863 22.9496L44.0337 23.0502L44.4438 20.4191L44.3469 20.3715C43.2355 19.8483 41.9052 19.5694 40.4911 19.5694C39.1301 19.5694 37.973 20.003 37.2255 20.7881C36.6342 21.4144 36.3305 22.2251 36.346 23.1258C36.3977 25.5571 37.5207 26.2451 40.1808 26.9506C41.9398 27.3982 42.2968 27.664 42.2842 28.5292C42.2742 29.3073 41.8244 29.6007 40.6281 29.6007C39.3771 29.6007 37.9665 29.125 36.7426 28.2994L36.5649 28.1777L36.1518 30.8189L36.2406 30.8689C37.1934 31.4097 38.8214 31.9775 40.5378 31.9775C42.2014 31.9775 43.4298 31.5709 44.1898 30.7783C44.7822 30.1565 45.0733 29.3158 45.0598 28.2724C45.0211 25.6613 43.7445 25.0409 41.0423 24.3219ZM52.2986 29.1115L52.1445 29.1541C51.9397 29.2122 51.6807 29.2417 51.3268 29.2417C50.4432 29.2417 50.0326 28.8306 50.0326 27.9414V22.3587H52.2183L52.2585 19.7912H50.0326V16H47.1009V19.7912H45.5698V22.3582H47.1009V28.4066C47.1009 30.8004 48.3127 31.9715 50.8112 31.9715C51.6174 31.9715 52.1114 31.8768 52.5511 31.7782L52.6847 31.7517L52.2986 29.1115ZM57.6128 29.6007C56.8794 29.6007 56.4256 29.1366 56.4256 28.392C56.4256 27.0657 57.665 26.199 60.0134 25.8736V28.4711C59.2845 29.2057 58.4567 29.6007 57.6128 29.6007ZM58.6424 19.5444C56.789 19.5444 55.3895 20.01 54.2765 20.4606L54.1711 20.5032L54.5531 23.0322L54.7198 22.9566C56.0556 22.3472 57.1861 22.0628 58.2875 22.0628C59.4612 22.0628 60.0134 22.564 60.0134 23.6435V23.9529C55.6118 24.4201 53.4688 25.9697 53.4688 28.6915C53.4688 30.7022 54.7313 32 56.6896 32C58.0451 32 59.1705 31.4893 60.2077 30.4489C60.2639 30.7973 60.415 31.7677 60.415 31.7677H62.9903V23.5614C62.9903 20.8241 61.6093 19.5444 58.6424 19.5444ZM70.6352 29.1115L70.4836 29.1541C70.2798 29.2122 70.0168 29.2417 69.6689 29.2417C68.7824 29.2417 68.3667 28.8306 68.3667 27.9414V22.3587H70.5569L70.5971 19.7912H68.3667V16H65.43V19.7912H63.9064V22.3582H65.43V28.4066C65.43 30.8004 66.6499 31.9715 69.1498 31.9715C69.9535 31.9715 70.4706 31.8723 70.8893 31.7782L71.0198 31.7517L70.6352 29.1115ZM74.4766 24.4651C74.6106 22.7478 75.335 21.7609 76.4795 21.7609C78.0207 21.7609 78.4293 23.1944 78.4901 24.4651H74.4766ZM80.855 28.1888C79.5217 29.1431 78.4313 29.5541 77.1989 29.5541C75.5985 29.5541 74.6051 28.4366 74.4344 26.4924H81.3801L81.4107 25.6733C81.4107 21.6147 79.7757 19.5504 76.5468 19.5449C75.1282 19.5404 73.965 19.9995 73.089 20.9052C72.0223 21.9992 71.458 23.7021 71.458 25.813C71.458 29.6332 73.5514 32 76.9057 32C78.5443 32 80.0307 31.5289 81.3269 30.6081L81.4002 30.558L81.0387 28.0546L80.855 28.1888Z" fill="#D8DADC"/>
</svg>
