<svg width="96" height="48" viewBox="0 0 96 48" fill="none" xmlns="http://www.w3.org/2000/svg">
<path d="M41.9094 16.146H44.5521C45.8102 16.0679 47.0968 16.5982 47.0968 17.9817C47.0968 18.7566 46.5597 19.2973 45.8592 19.5316V19.5522C46.7476 19.7392 47.4093 20.358 47.4093 21.3981C47.4093 22.8021 45.6549 23.3119 44.5726 23.2338H41.9094V16.146ZM44.6011 18.991C45.2363 18.991 45.5855 18.7258 45.5855 18.1564C45.5855 17.587 45.2343 17.3218 44.6011 17.3218H43.4207V18.993H44.6011V18.991ZM44.6011 22.0539C45.3139 22.0539 45.7999 21.9264 45.7999 21.1124C45.7999 20.2983 45.3118 20.1709 44.6011 20.1709H43.4207V22.0559H44.6011V22.0539Z" fill="#D8DADC"/>
<path d="M49.8377 16.1457V23.2314H48.3754V16.1457H49.8377Z" fill="#D8DADC"/>
<path d="M54.2859 22.6224C53.9737 23.0747 53.5161 23.3789 52.7746 23.3789C52.2869 23.3789 51.3412 23.0068 51.1656 22.2894C51.0878 21.9852 51.0674 21.6707 51.0674 21.5042V18.3036H52.5319V21.2596C52.5398 21.7899 52.6871 22.3984 53.41 22.3984C53.8676 22.3984 54.2678 21.977 54.2882 21.2596V18.3036H55.7503V22.3491C55.7605 22.643 55.7791 22.939 55.8096 23.233H54.3451L54.2859 22.6245V22.6224Z" fill="#D8DADC"/>
<path d="M58.3407 21.1612C58.3407 21.7984 58.4287 22.3987 59.1804 22.3987C59.6866 22.3987 59.9399 22.2116 60.077 21.7614H61.3942C61.2673 22.9784 60.3197 23.3813 59.1804 23.3813C57.5038 23.3813 56.8294 22.4295 56.8294 20.7788C56.8294 19.2967 57.6872 18.1579 59.1804 18.1579C60.0974 18.1579 60.857 18.4724 61.2673 19.3358C61.4044 19.6112 61.4716 19.9052 61.5105 20.2197C61.5494 20.5239 61.5494 20.8384 61.5494 21.1612H58.3407ZM60.0381 20.1806C60.0381 19.64 59.8932 19.1405 59.1804 19.1405C58.5083 19.1405 58.3615 19.6421 58.3407 20.1806H60.0381Z" fill="#D8DADC"/>
<path d="M66.4731 18.4421C66.4833 17.6959 66.0341 17.0977 65.1272 17.0977C64.055 17.0977 63.7813 18.697 63.7813 19.6899C63.7813 20.6827 64.055 22.282 65.1272 22.282C66.0341 22.282 66.4833 21.6838 66.4731 20.9376H68.0826C68.0149 22.7137 66.7468 23.3818 65.1272 23.3818C63.0889 23.3818 62.1723 21.762 62.1723 19.6919C62.1723 17.6219 63.0889 16 65.1272 16C66.7468 16 68.0149 16.6681 68.0826 18.4442H66.4731V18.4421Z" fill="#D8DADC"/>
<path d="M70.202 18.3043L70.2307 19.1985H70.2511C70.5637 18.4235 71.1885 18.2261 71.9198 18.2467V19.552H71.2867C71.0412 19.5726 70.7207 19.7083 70.5739 19.9159C70.4164 20.1913 70.3877 20.4647 70.3775 20.7895V23.2337H68.9237L68.9135 19.2869C68.9135 19.0813 68.8848 18.6681 68.8644 18.3043H70.202Z" fill="#D8DADC"/>
<path d="M75.1243 23.3792C73.5251 23.3792 72.5696 22.3185 72.5696 20.7685C72.5696 19.2186 73.5251 18.1579 75.1243 18.1579C76.7236 18.1579 77.6795 19.2186 77.6795 20.7685C77.6795 22.3185 76.7236 23.3792 75.1243 23.3792ZM75.1243 22.3966C76.021 22.3966 76.1678 21.5517 76.1678 20.7665C76.1678 19.9812 76.0228 19.1364 75.1243 19.1364C74.2258 19.1364 74.0808 19.9812 74.0808 20.7665C74.0808 21.5517 74.2277 22.3966 75.1243 22.3966Z" fill="#D8DADC"/>
<path d="M81.2008 19.6197C81.1804 19.2867 80.8696 19.1387 80.5371 19.1387C80.1365 19.1387 79.953 19.2558 79.953 19.5806C79.953 20.3556 82.7509 19.9136 82.7509 21.7596C82.7509 22.8388 81.4439 23.3794 80.5371 23.3794C79.3954 23.3794 78.4006 22.9272 78.3825 21.7987H79.7386C79.7669 22.181 80.1082 22.3968 80.5389 22.3968C80.9391 22.3968 81.2415 22.2303 81.2415 21.848C81.2415 21.4656 80.5389 21.2888 80.2471 21.219C79.3116 20.9928 78.4436 20.7873 78.4436 19.6382C78.4436 18.6083 79.683 18.1561 80.5408 18.1561C81.5745 18.1561 82.4527 18.5281 82.5198 19.6197H81.2008Z" fill="#D8DADC"/>
<path d="M86.0763 19.6197C86.0578 19.2867 85.7456 19.1387 85.4126 19.1387C85.0125 19.1387 84.8286 19.2558 84.8286 19.5806C84.8286 20.3556 87.6265 19.9136 87.6265 21.7596C87.6265 22.8388 86.3195 23.3794 85.4126 23.3794C84.271 23.3794 83.2766 22.9272 83.2581 21.7987H84.6142C84.6429 22.181 84.9856 22.3968 85.4145 22.3968C85.8151 22.3968 86.1171 22.2303 86.1171 21.848C86.1171 21.4656 85.4145 21.2888 85.1227 21.219C84.1853 20.9928 83.3192 20.7873 83.3192 19.6382C83.3192 18.6083 84.5567 18.1561 85.4168 18.1561C86.4501 18.1561 87.3282 18.5281 87.3958 19.6197H86.0763Z" fill="#D8DADC"/>
<path d="M41.9094 32.8521V25.7643H44.5521C45.8102 25.6862 47.0968 26.2165 47.0968 27.6C47.0968 28.3749 46.5597 28.9156 45.8592 29.1499V29.1684C46.7476 29.3555 47.4093 29.9742 47.4093 31.0144C47.4093 32.4184 45.6549 32.9282 44.5726 32.8501H41.9094V32.8521ZM44.6011 28.6113C45.2363 28.6113 45.5855 28.3462 45.5855 27.7767C45.5855 27.2074 45.2343 26.9422 44.6011 26.9422H43.4207V28.6113H44.6011ZM44.6011 31.6742C45.3139 31.6742 45.7999 31.5468 45.7999 30.7307C45.7999 29.9146 45.3118 29.7892 44.6011 29.7892H43.4207V31.6742H44.6011Z" fill="#D8DADC"/>
<path d="M49.8377 25.7643V32.8521H48.3754V25.7643H49.8377Z" fill="#D8DADC"/>
<path d="M54.2859 32.241C53.9737 32.6932 53.5161 32.9974 52.7746 32.9974C52.2869 32.9974 51.3412 32.6253 51.1656 31.9079C51.0878 31.6037 51.0674 31.2892 51.0674 31.1227V27.922H52.5319V30.8781C52.5398 31.4084 52.6871 32.0169 53.41 32.0169C53.8676 32.0169 54.2678 31.5955 54.2882 30.8781V27.922H55.7503V31.9655C55.7605 32.2594 55.7791 32.5555 55.8096 32.8494H54.3451L54.2859 32.241Z" fill="#D8DADC"/>
<path d="M58.3407 30.7794C58.3407 31.4187 58.4287 32.0169 59.1804 32.0169C59.6866 32.0169 59.9399 31.8299 60.077 31.3797H61.3942C61.2673 32.5966 60.3197 32.9995 59.1804 32.9995C57.5038 32.9995 56.8294 32.0477 56.8294 30.3991C56.8294 28.917 57.6872 27.7782 59.1804 27.7782C60.0974 27.7782 60.857 28.0927 61.2673 28.9561C61.4044 29.2315 61.4716 29.5255 61.5105 29.84C61.5494 30.1443 61.5494 30.4587 61.5494 30.7815H58.3407V30.7794ZM60.0381 29.7989C60.0381 29.2582 59.8932 28.7587 59.1804 28.7587C58.5083 28.7587 58.3615 29.2603 58.3407 29.7989H60.0381Z" fill="#D8DADC"/>
<path d="M66.2693 27.7849C66.2101 27.0675 65.8303 26.714 65.099 26.714C64.5437 26.714 63.9777 27.0079 63.9777 27.6266C63.9777 28.3934 64.6599 28.4797 65.2643 28.6277C66.3365 28.9032 67.9172 29.2074 67.9172 30.6299C67.9172 32.3875 66.3958 32.996 64.8845 32.996C63.2751 32.996 62.1357 32.369 62.1825 30.5806H63.7243C63.6651 31.3659 64.1148 31.8962 64.9049 31.8962C65.5093 31.8962 66.3101 31.7092 66.3101 30.9527C66.3101 30.1181 65.3051 30.0605 64.7007 29.9022C63.7165 29.6576 62.3706 29.2054 62.3706 27.9494C62.3706 26.3295 63.8531 25.6121 65.2972 25.6121C66.6635 25.6121 67.7255 26.3583 67.7255 27.7808H66.2712L66.2693 27.7849Z" fill="#D8DADC"/>
<path d="M68.9908 32.852V25.7642H70.4428V28.5023L70.4636 28.5229C70.7656 28.0706 71.225 27.7766 71.9647 27.7766C72.4524 27.7766 73.3981 28.1405 73.5737 28.8558C73.6515 29.1601 73.6718 29.4746 73.6718 29.6411V32.852H72.2097V29.8878C72.1995 29.3574 72.0545 28.7593 71.3316 28.7593C70.874 28.7593 70.4738 29.1724 70.453 29.8878V32.852H68.9908Z" fill="#D8DADC"/>
<path d="M76.4419 25.7642V27.0304H74.8816V25.7642H76.4419ZM76.3928 27.9226V32.8499H74.9307V27.9226H76.3928Z" fill="#D8DADC"/>
<path d="M78.9383 30.7794C78.9383 31.4187 79.0263 32.0169 79.7775 32.0169C80.2842 32.0169 80.5375 31.8299 80.6742 31.3797H81.9914C81.8649 32.5966 80.9192 32.9995 79.7775 32.9995C78.1009 32.9995 77.427 32.0477 77.427 30.3991C77.427 28.917 78.2848 27.7782 79.7775 27.7782C80.6945 27.7782 81.4546 28.0927 81.8649 28.9561C82.002 29.2315 82.0692 29.5255 82.1099 29.84C82.1488 30.1443 82.1488 30.4587 82.1488 30.7815H78.9406L78.9383 30.7794ZM80.6357 29.7989C80.6357 29.2582 80.4903 28.7587 79.7775 28.7587C79.1059 28.7587 78.9587 29.2603 78.9383 29.7989H80.6357Z" fill="#D8DADC"/>
<path d="M84.5266 25.7642V32.852H83.0645V25.7642H84.5266Z" fill="#D8DADC"/>
<path d="M89.1581 25.7642H90.6207V31.8694C90.6207 32.1942 90.649 32.5272 90.6698 32.852H89.2054C89.185 32.6156 89.1665 32.3895 89.1665 32.1551H89.1461C88.8233 32.7348 88.2781 33 87.645 33C86.2111 33 85.5395 31.6556 85.5395 30.3894C85.5395 29.1231 86.3093 27.7787 87.8307 27.7787C88.3374 27.7787 88.864 28.0829 89.1377 28.4961H89.1581V25.7642ZM88.1045 32.0174C88.8951 32.0174 89.1581 31.0657 89.1581 30.3873C89.1581 29.7089 88.8951 28.7572 88.1045 28.7572C87.1694 28.7572 87.0508 29.6308 87.0508 30.3873C87.0508 31.1438 87.167 32.0174 88.1045 32.0174Z" fill="#D8DADC"/>
<path d="M19.703 32.7661C19.2496 32.7661 18.9208 32.4392 18.9208 31.9808C18.9208 31.5224 19.2476 31.1997 19.703 31.1997C20.1584 31.1997 20.479 31.5286 20.479 31.9808C20.479 32.4331 20.1543 32.7661 19.703 32.7661ZM19.703 31.0496C19.1904 31.0496 18.7737 31.469 18.7737 31.9808C18.7737 32.4927 19.1904 32.9161 19.703 32.9161C20.2156 32.9161 20.6281 32.4968 20.6281 31.9808C20.6281 31.4648 20.2135 31.0496 19.703 31.0496Z" fill="#D8DADC"/>
<path d="M19.6792 31.9105H19.4913V31.5672H19.7834C19.91 31.5672 20.0345 31.5857 20.0345 31.7358C20.0345 31.9372 19.8263 31.9125 19.6792 31.9125M20.1816 31.7399C20.1816 31.5466 20.0877 31.4439 19.8119 31.4439H19.3545V32.5087H19.4893V32.0359H19.7159L20.0141 32.5087H20.1673L19.8528 32.0359C20.0366 32.0194 20.1796 31.9413 20.1796 31.7378" fill="#D8DADC"/>
<path d="M35.5817 32.7723C35.1365 32.7723 34.8159 32.4516 34.8159 32.0014C34.8159 31.5513 35.1386 31.2347 35.5817 31.2347C36.0249 31.2347 36.3415 31.5554 36.3415 32.0014C36.3415 32.4475 36.0229 32.7723 35.5817 32.7723ZM35.5817 31.0888C35.0794 31.0888 34.6709 31.4978 34.6709 32.0014C34.6709 32.5051 35.0794 32.9183 35.5817 32.9183C36.0842 32.9183 36.4885 32.5072 36.4885 32.0014C36.4885 31.4958 36.0821 31.0888 35.5817 31.0888Z" fill="#D8DADC"/>
<path d="M35.5558 31.9314H35.372V31.5943H35.6579C35.7845 31.5943 35.905 31.6148 35.905 31.7608C35.905 31.9561 35.7008 31.9314 35.5558 31.9314ZM36.048 31.7608C36.048 31.5737 35.9561 31.473 35.6865 31.473H35.2372V32.5173H35.3699V32.0527H35.5926L35.8846 32.5173H36.0337L35.7233 32.0527C35.905 32.0383 36.0459 31.9622 36.0459 31.7587" fill="#D8DADC"/>
<path d="M12.3277 25.6877C12.3032 25.6877 12.2807 25.698 12.2623 25.7247L10.7265 28.0928C11.2146 28.3127 11.7579 28.434 12.3277 28.434C12.8975 28.434 13.4387 28.3127 13.9289 28.0928L12.391 25.7247C12.3726 25.7 12.3502 25.6877 12.3277 25.6877Z" fill="#D8DADC"/>
<path d="M10.825 23.7457L8.50295 23.5298C8.43148 23.832 8.39267 24.1486 8.39267 24.4713C8.39267 25.46 8.75009 26.3604 9.34028 27.0532L10.968 23.9266C11.0068 23.8299 10.9946 23.758 10.8271 23.7457" fill="#D8DADC"/>
<path fill-rule="evenodd" clip-rule="evenodd" d="M16.0007 20.7341H20.6281V28.182H16.0007V32.8378H8.62786V28.182H4V20.7341H8.62786V16.0783H16.0007V20.7341ZM12.6108 24.9661C12.4535 24.7503 12.2063 24.7318 12.0409 24.9661L9.81468 28.3168C10.5356 28.7937 11.3995 29.0734 12.3267 29.0734C13.2539 29.0734 14.1178 28.7939 14.8388 28.319H14.8406L14.8388 28.3168H14.8365L12.6108 24.9661ZM8.04802 22.8506C7.88182 23.2913 7.78294 23.7651 7.76082 24.2596L7.75403 24.4745C7.75403 25.9421 8.43817 27.2495 9.50215 28.0923V28.0987L11.604 24.1294C11.7551 23.7902 11.6895 23.229 11.1137 23.1488L8.04802 22.8506ZM13.538 23.147C12.962 23.2271 12.8945 23.7884 13.0477 24.1276L15.1472 28.0969V28.0887C16.2133 27.248 16.8975 25.9385 16.8976 24.4708C16.8976 23.9014 16.7953 23.3524 16.6054 22.8488L13.538 23.147ZM12.3281 19.8714C10.4942 19.8715 8.91348 20.9569 8.18643 22.5274H11.4398C11.9054 22.5171 12.1096 22.2436 12.1178 22.0216C12.128 21.7585 12.0873 21.674 11.8708 21.3924C11.634 21.0779 11.7972 20.4718 12.3281 20.4614C12.859 20.4717 13.0204 21.0758 12.7858 21.3924C12.5693 21.674 12.5261 21.7585 12.5384 22.0216C12.5465 22.2436 12.7532 22.5171 13.2168 22.5274H16.4697C15.7427 20.9569 14.16 19.8714 12.3281 19.8714Z" fill="#D8DADC"/>
<path d="M15.3186 21.8949C14.8264 21.3173 14.1688 20.8815 13.4213 20.6636C13.6542 21.0521 13.4642 21.5598 13.2457 21.8003C13.2048 21.8414 13.2252 21.8846 13.262 21.8949H15.3186Z" fill="#D8DADC"/>
<path d="M13.8275 23.7457C13.66 23.758 13.6477 23.8299 13.6866 23.9266L15.3122 27.0532C15.9045 26.3584 16.2619 25.458 16.2619 24.4713C16.2619 24.1486 16.2231 23.8341 16.1496 23.5298L13.8275 23.7457Z" fill="#D8DADC"/>
<path d="M11.2343 20.6636C10.4848 20.8815 9.82925 21.3152 9.33706 21.8949H11.3937C11.4304 21.8846 11.4509 21.8414 11.408 21.8003C11.1894 21.5598 11.0036 21.0521 11.2343 20.6636Z" fill="#D8DADC"/>
<path fill-rule="evenodd" clip-rule="evenodd" d="M24.1627 16.0783C25.9537 16.9868 27.7385 17.4966 29.8317 17.4905C31.7943 17.4828 33.4859 17.054 35.1638 16.2518L35.5012 16.0865C36.6755 18.4155 36.8633 22.1897 35.8463 25.3513C34.866 28.3977 32.9666 31.173 29.8317 32.9161C26.6968 31.1709 24.7974 28.3977 23.8171 25.3513C22.8001 22.1918 22.9863 18.4073 24.1627 16.0783ZM34.7744 17.8665C33.4837 18.3126 32.7281 18.4505 32.0276 18.5594C31.374 18.6622 30.7875 18.726 29.8317 18.7383H29.8276C28.8679 18.726 28.2838 18.6622 27.6304 18.5594C26.9279 18.4505 26.1722 18.3126 24.8836 17.8665C24.0259 19.9756 24.2154 22.6788 24.9976 24.9893C25.8779 27.5897 27.2526 29.8939 29.8299 31.5035H29.834C29.8309 31.502 29.8299 31.5017 29.8299 31.5017C32.2461 29.9947 33.605 27.875 34.4908 25.4751L34.6618 24.9893C35.4419 22.6809 35.6341 19.9756 34.7744 17.8665Z" fill="#D8DADC"/>
<path fill-rule="evenodd" clip-rule="evenodd" d="M34.3345 18.6805C34.8797 20.2387 34.7656 22.2061 34.3449 23.9555C33.5545 27.2527 31.5773 29.7604 29.8332 30.8643C28.0892 29.7584 26.1125 27.2526 25.3221 23.9555C24.8993 22.2061 24.7829 20.2387 25.3302 18.6805C26.1123 18.8902 26.8413 19.063 27.5948 19.1658C28.3485 19.2665 29.0942 19.3426 29.8314 19.3488H29.8355C30.3854 19.3442 30.9433 19.3001 31.5058 19.2359L32.0716 19.1658C32.8232 19.063 33.5543 18.8902 34.3345 18.6805ZM29.6505 27.9639C29.6505 27.9639 29.6791 29.1811 29.7016 29.8286C29.7058 29.9743 29.7669 30.0216 29.9056 30.0217C30.0521 30.018 30.097 29.9641 30.106 29.8915L30.11 29.8591C30.1121 29.6513 30.1405 28.7758 30.1507 28.3031C30.1528 28.2641 30.1386 28.2576 30.1223 28.233C30.0385 28.1467 29.9443 28.0853 29.9178 28.0709C29.8331 28.0201 29.6548 27.9653 29.6505 27.9639ZM29.3764 26.254C29.3764 26.254 29.2334 26.2993 29.1353 26.3569C29.0435 26.4103 28.88 26.511 28.8187 26.6569C28.6513 27.0516 28.8004 27.4155 29.2109 27.5943C29.3885 27.6724 29.6356 27.7424 29.8215 27.8164C30.0032 27.8863 30.3441 28.1163 30.3688 28.213C30.383 28.2723 30.3299 28.3218 30.3299 28.3218L30.3118 28.803C30.3153 28.8021 30.4478 28.7702 30.5782 28.681L30.6365 28.6404C30.7732 28.5254 30.8735 28.3754 30.8735 28.1392C30.8735 27.8761 30.7506 27.7175 30.381 27.4996C30.095 27.329 29.703 27.1729 29.4334 27.0516C29.4088 27.0413 29.3192 26.9858 29.3497 26.8873C29.366 26.8379 29.4194 26.8172 29.4194 26.8172L29.3764 26.254ZM29.6496 26.8932L29.907 27.0188L30.1666 27.1604L30.1887 26.0341C29.9601 26.0074 29.8621 25.9972 29.5926 25.9663L29.6496 26.8932ZM28.9748 24.0579C28.693 24.175 28.2946 24.2943 28.2701 24.6766C28.2354 25.244 28.6543 25.5875 29.2466 25.6841C29.5733 25.7375 29.8796 25.7745 30.2145 25.8156C30.2574 25.8197 30.3597 25.8301 30.4271 25.8589C30.4882 25.8856 30.5186 25.9369 30.5248 25.9759C30.5329 26.0354 30.5251 26.0643 30.4904 26.1074C30.4562 26.1499 30.406 26.1626 30.4045 26.163L30.3859 26.8454C30.3859 26.8454 30.6168 26.8351 30.8373 26.7015C31.0214 26.59 31.1429 26.4532 31.2019 26.2859L31.2191 26.2162C31.2742 25.9778 31.2355 25.7929 31.0721 25.5648C30.9638 25.4127 30.774 25.3035 30.58 25.2356C30.2879 25.137 29.7385 25.0674 29.324 25.0098C29.2606 24.9996 29.1587 24.9603 29.1485 24.8678C29.1384 24.7646 29.261 24.741 29.2647 24.7403C29.2639 24.7376 29.2356 24.6376 29.1833 24.4877C29.1506 24.3993 29.0667 24.2223 28.9748 24.0579ZM29.3484 23.6077C29.3484 23.6077 29.1684 23.653 29.1439 23.6983C29.1316 23.7168 29.0974 23.7454 29.1381 23.8212C29.3178 24.1522 29.4257 24.3065 29.5094 24.7567C29.7667 24.7917 29.9466 24.8203 30.2222 24.8737L30.2548 23.6304C30.2503 23.6286 30.0779 23.5581 29.8219 23.5398C29.485 23.5172 29.3461 23.503 29.3461 23.503L29.3443 23.5007L29.3484 23.6077ZM29.3737 20.4979C28.9224 20.3252 28.4198 20.2799 27.9725 20.5142C27.3824 20.8247 27.1129 21.5934 27.413 22.2141C27.656 22.7157 28.1199 22.9687 28.6672 23.1105C28.9347 23.1804 29.1654 23.2195 29.4574 23.2503C29.7903 23.2873 30.0845 23.3014 30.4072 23.3837C30.4767 23.4022 30.593 23.4517 30.6257 23.5216C30.6848 23.647 30.65 23.8009 30.4949 23.8626C30.4929 24.0045 30.4833 24.2232 30.4741 24.4062L30.4583 24.7362C30.4761 24.7343 31.8432 24.5824 31.6098 23.355C31.5547 23.0591 31.2547 22.7816 30.9893 22.6439C30.3031 22.2883 29.5511 22.4177 28.8486 22.1896C28.6465 22.1217 28.4078 22.0269 28.3506 21.7967C28.3159 21.6488 28.3179 21.5031 28.4239 21.4393C28.5832 21.3447 28.7039 21.4967 28.9612 21.5563C29.1245 21.5954 29.3001 21.5871 29.4266 21.5522C29.4838 21.5337 29.5616 21.5171 29.5718 21.4739C29.5716 21.4288 29.4778 21.402 29.4452 21.3856C29.3656 21.3465 29.298 21.3465 29.2122 21.3137C29.0714 21.2581 28.918 21.1576 28.7771 21.0774C28.9119 21.0486 29.1367 21.0402 29.2715 21.0587C29.3797 21.0711 29.7108 21.067 29.8088 21.0382C29.8293 21.0341 29.8801 21.0155 29.8577 20.9786C29.8209 20.9129 29.7535 20.8883 29.7107 20.8288C29.6147 20.6952 29.5309 20.5595 29.3737 20.4979ZM29.5714 19.922C29.5201 19.8974 29.3636 19.9058 29.3267 19.9775C29.2787 20.0722 29.3009 20.2657 29.3018 20.2734C29.3018 20.2734 29.5981 20.3866 29.6962 20.5038C29.7758 20.5757 29.8331 20.6932 29.878 20.7569C29.9127 20.8062 29.9578 20.8494 30.0006 20.8967C30.0638 20.9665 30.0945 21.0406 30.072 21.0879C30.0516 21.1186 29.9556 21.1577 29.8617 21.1721C29.6473 21.1803 29.4877 21.1862 29.4877 21.1862C29.4877 21.1862 29.929 21.2418 30.1128 21.2891C30.2189 21.3137 30.266 21.3507 30.3068 21.3979C30.3293 21.4225 30.3781 21.536 30.3597 21.5668C30.0575 21.4332 29.8003 21.3263 29.5062 21.2791C29.5329 21.2894 29.649 21.3325 29.7021 21.3715C29.7449 21.4044 29.7532 21.4761 29.7532 21.4885C29.715 21.7196 29.3371 21.7269 29.3267 21.727L29.3407 22.0598C29.6429 22.1215 30.0373 22.1296 30.4253 22.2078C30.4279 22.2026 30.4787 22.1024 30.5026 22.0662C30.6067 21.8977 30.7479 21.8154 30.893 21.6756C31.1196 21.4557 31.3523 21.291 31.528 21.1307C31.5907 21.0706 31.6239 21.0569 31.6528 20.9991L31.6854 20.9231C31.7689 20.6498 31.3972 20.4606 31.2666 20.5161C30.9868 20.6353 30.8009 20.8943 30.5252 21.0423C30.4905 21.0608 30.4475 21.063 30.4271 21.0178C30.3863 20.8779 30.4641 20.5861 30.4212 20.3868C30.4028 20.2963 30.4006 20.2818 30.3394 20.2365C30.0433 20.1831 29.7919 20.0473 29.5714 19.922Z" fill="#D8DADC"/>
<path d="M29.3965 29.3244C29.372 29.4951 29.4415 29.567 29.4251 29.6472C29.3965 29.7767 29.3148 29.7377 29.2658 29.641C29.1985 29.5115 29.1535 29.4457 29.1351 29.2464C29.1045 28.9298 29.2618 28.7777 29.3332 28.7057C29.4109 28.6276 29.4823 28.5885 29.4823 28.5885L29.5068 29.121C29.5068 29.121 29.421 29.1538 29.3965 29.3244Z" fill="#D8DADC"/>
<path d="M28.9714 20.6327C29.0593 20.6943 29.0409 20.8053 29.1655 20.7827C29.2308 20.7725 29.2696 20.7313 29.3268 20.6902C29.335 20.6861 29.4003 20.6943 29.4187 20.7005C29.2798 20.5587 29.0021 20.5587 28.8182 20.5525C28.8652 20.6429 28.9163 20.5957 28.9694 20.6306" fill="#D8DADC"/>
<path d="M88.179 23.2858C87.9155 23.2858 87.7256 23.0946 87.7256 22.8295C87.7256 22.5643 87.9155 22.3751 88.179 22.3751C88.4426 22.3751 88.6301 22.5663 88.6301 22.8295C88.6301 23.0926 88.4426 23.2858 88.179 23.2858ZM88.179 22.2888C87.8808 22.2888 87.6399 22.5334 87.6399 22.8295C87.6399 23.1254 87.8808 23.3721 88.179 23.3721C88.4773 23.3721 88.7163 23.1275 88.7163 22.8295C88.7163 22.5314 88.475 22.2888 88.179 22.2888Z" fill="#D8DADC"/>
<path d="M88.1642 22.7887H88.0558V22.5893H88.2253C88.299 22.5893 88.3722 22.5996 88.3722 22.6859C88.3722 22.8031 88.2517 22.7887 88.1661 22.7887M88.4583 22.69C88.4583 22.579 88.4027 22.5174 88.2439 22.5174H87.978V23.1361H88.0558V22.8627H88.1883L88.362 23.1361H88.4518L88.268 22.8627C88.3745 22.8524 88.4583 22.8072 88.4583 22.69Z" fill="#D8DADC"/>
<path d="M91.4627 32.7614C91.1992 32.7614 91.0093 32.5702 91.0093 32.305C91.0093 32.0398 91.1992 31.8507 91.4627 31.8507C91.7263 31.8507 91.9138 32.0419 91.9138 32.305C91.9138 32.5681 91.7263 32.7614 91.4627 32.7614ZM91.4627 31.7644C91.1645 31.7644 90.9236 32.009 90.9236 32.305C90.9236 32.601 91.1645 32.8477 91.4627 32.8477C91.761 32.8477 92 32.603 92 32.305C92 32.0069 91.7587 31.7644 91.4627 31.7644Z" fill="#D8DADC"/>
<path d="M91.4461 32.2633H91.3377V32.0639H91.5072C91.5809 32.0639 91.6541 32.0742 91.6541 32.1606C91.6541 32.2777 91.5336 32.2633 91.448 32.2633M91.7402 32.1647C91.7402 32.0537 91.6846 31.992 91.5258 31.992H91.2599V32.6107H91.3377V32.3373H91.4702L91.6439 32.6107H91.7337L91.5499 32.3373C91.6564 32.3271 91.7402 32.2818 91.7402 32.1647Z" fill="#D8DADC"/>
</svg>
