<svg width="96" height="48" viewBox="0 0 96 48" fill="none" xmlns="http://www.w3.org/2000/svg">
<path d="M2.32071 33.7536C2.32071 34.2422 2.34666 34.9364 2.60607 35.232C2.86547 35.5277 3.28044 35.6177 3.68253 35.6177C4.90167 35.6177 5.83545 35.0778 5.83545 33.715C5.83545 32.6479 5.29077 31.4009 3.1119 31.4009C2.37263 31.4009 2.3208 31.478 2.3208 31.748L2.32071 33.7536ZM2.32071 30.6167C2.32071 31.0024 2.33369 31.0153 3.03402 31.0024C4.42171 30.9509 5.17396 30.5396 5.17396 29.2668C5.17396 27.9426 4.17537 27.4413 3.13776 27.4413C2.93028 27.4284 2.70981 27.4541 2.50223 27.5184C2.37253 27.557 2.30773 27.6341 2.30773 27.8655C2.32071 27.8655 2.32071 30.6167 2.32071 30.6167ZM1.19233 28.8169C1.19233 27.8141 1.14041 27.557 0.517955 27.5055L0.0770263 27.4669C-0.0137369 27.3898 -0.0267178 27.2484 0.0510659 27.1584L0.0900065 27.1198C0.829278 27.0556 1.75007 27.0041 3.02104 27.0041C3.87703 27.0041 4.70707 27.0683 5.31655 27.3898C5.90016 27.6727 6.35406 28.2126 6.35406 29.0868C6.35406 30.0639 5.78343 30.5652 4.9534 30.9381C4.9534 31.0666 5.05714 31.118 5.2128 31.1437C6.30224 31.3494 7.06738 32.3137 7.04142 33.4064C7.04142 34.9748 5.86122 36.0419 3.41005 36.0419C3.02095 36.0419 2.34657 36.0033 1.77594 36.0033C1.17935 36.0033 0.712462 36.029 0.206635 36.0419C0.115871 35.9519 0.102891 35.8105 0.180674 35.7076L0.427099 35.669C1.15339 35.5405 1.17935 35.399 1.17935 33.9721L1.19233 28.8169Z" fill="#D8DADC"/>
<path d="M9.86871 35.5663C10.1799 35.5405 10.4653 35.4248 10.6987 35.232C10.8674 35.0649 10.8674 34.8849 10.8803 34.5893L10.9062 33.7922C10.9062 33.6379 10.8543 33.6122 10.7636 33.6122C10.569 33.6379 10.3874 33.6765 10.2059 33.7407C9.40182 34.0107 8.99974 34.2164 8.99974 34.7435C8.99974 35.1934 9.37586 35.5534 9.82977 35.5534C9.84275 35.5663 9.85573 35.5663 9.86871 35.5663ZM10.7117 33.1751C10.9192 33.1108 10.9452 32.9823 10.9452 32.7765L10.9581 32.1465C10.9711 31.6451 10.8025 30.9637 9.95957 30.9637C9.57046 30.9637 9.11655 31.1565 9.07771 31.568C9.06473 31.7865 9.05175 31.9537 8.93503 32.0308C8.70158 32.1851 8.4292 32.2751 8.15691 32.2879C8.06615 32.3008 7.97538 32.2365 7.9624 32.1336V32.095C7.9624 31.3879 9.50575 30.4237 10.5043 30.4237C11.5029 30.4237 11.9698 30.9894 11.931 32.005L11.8532 34.3577C11.8272 34.9877 11.9439 35.5405 12.4887 35.5405C12.6054 35.5405 12.7221 35.5147 12.8259 35.4634C12.8907 35.4248 12.9556 35.3734 13.0074 35.3734C13.0592 35.3734 13.0982 35.4505 13.0982 35.5533C13.0982 35.6176 12.6183 36.1447 11.9569 36.1447C11.6068 36.1576 11.2825 35.9904 11.0621 35.7205C11.0102 35.6434 10.9324 35.5277 10.8416 35.5277C10.7509 35.5277 10.5822 35.6563 10.3099 35.7977C10.0117 35.9649 9.71333 36.1319 9.32423 36.1319C8.97406 36.1577 8.63687 36.0548 8.36449 35.8363C8.0921 35.592 7.93654 35.2449 7.93654 34.8849C7.93654 34.3579 8.19594 34.0492 9.06482 33.7279L10.7117 33.1751Z" fill="#D8DADC"/>
<path d="M13.111 38.5104C13.085 38.2275 13.3055 37.9833 13.5779 37.9705H13.915C14.0966 37.9833 14.2782 37.8805 14.369 37.7262C14.6413 37.3405 14.8618 36.9291 15.0433 36.492C15.1211 36.3121 15.1601 36.1063 15.173 35.9135C15.173 35.6435 15.1211 35.4764 14.9396 34.975L13.8761 32.0823C13.6427 31.4396 13.5519 31.1181 13.072 31.0281L12.7348 30.9639C12.6571 30.8997 12.67 30.6682 12.7738 30.6296C13.2147 30.6554 13.6168 30.6682 14.0707 30.6682C14.4468 30.6682 14.823 30.6554 15.2639 30.6296C15.3676 30.6682 15.3936 30.8997 15.2899 30.9639L14.9527 31.0281C14.7582 31.0667 14.6544 31.1052 14.6544 31.2081C14.6544 31.3752 14.9656 32.2494 15.0435 32.4808L15.4844 33.7279C15.5622 33.9464 15.8216 34.6664 15.8865 34.6921C16.081 34.3707 16.2497 34.0365 16.3924 33.6894L16.8593 32.6223C17.1575 31.9152 17.3391 31.4138 17.3391 31.2724C17.3391 31.1824 17.2613 31.0796 17.0149 31.041L16.587 30.9768C16.4962 30.9125 16.5092 30.6811 16.6129 30.6425C17.0539 30.6682 17.4559 30.6811 17.8191 30.6811C18.1822 30.6811 18.4805 30.6682 18.8566 30.6425C18.9603 30.7196 18.9733 30.8611 18.9085 30.9639C18.9085 30.9768 18.8955 30.9768 18.8955 30.9896L18.6621 31.0282C18.2082 31.1053 17.9618 31.5039 17.5079 32.4682L16.7427 34.0238C16.2888 34.9366 15.2901 37.0321 14.6287 38.4977C14.3953 39.012 14.0711 39.1405 13.7598 39.1405C13.3707 39.1405 13.1632 38.8962 13.1632 38.5619" fill="#D8DADC"/>
<path d="M20.244 34.4736C20.244 35.4507 20.27 35.5791 20.7628 35.6563L21.087 35.6949C21.1778 35.7978 21.1648 35.9392 21.0611 36.0292C20.6072 36.0035 20.218 35.9906 19.7382 35.9906C19.2583 35.9906 18.8433 36.0035 18.4283 36.0292C18.3245 35.9392 18.3116 35.7978 18.4023 35.6949L18.7135 35.6563C19.2194 35.5921 19.2324 35.4507 19.2324 34.4736V28.354C19.2324 27.557 19.2194 27.467 18.8044 27.2356L18.6617 27.1585C18.5969 27.0814 18.5969 26.9657 18.6617 26.8885C19.1675 26.7342 19.6603 26.5542 20.1402 26.3228C20.1921 26.3228 20.2439 26.3614 20.2699 26.3999C20.2569 26.8113 20.2309 27.4799 20.2309 28.084L20.244 34.4736Z" fill="#D8DADC"/>
<path d="M24.2903 30.8738C23.3955 30.8738 22.721 31.7224 22.721 33.2137C22.721 34.4478 23.2787 35.7721 24.4849 35.7721C25.691 35.7721 26.0542 34.525 26.0542 33.4837C26.0542 32.3394 25.5873 30.8738 24.2903 30.8738ZM27.2214 33.265C27.2214 34.962 26.0412 36.1705 24.3423 36.1705C22.773 36.1705 21.5409 35.0777 21.5409 33.3807C21.5409 31.6838 22.8379 30.4495 24.446 30.4495C25.9894 30.4625 27.2214 31.5938 27.2214 33.265Z" fill="#D8DADC"/>
<path d="M28.6999 32.0951C28.6999 31.5681 28.6999 31.5037 28.3368 31.2595L28.2071 31.1823C28.1552 31.1052 28.1552 31.0024 28.2201 30.9381C28.6999 30.7453 29.1538 30.5267 29.5948 30.2696C29.6596 30.2824 29.7115 30.3082 29.7115 30.3595V31.1437C29.7115 31.208 29.7245 31.2466 29.7504 31.2723C30.2303 30.8737 30.749 30.4624 31.2548 30.4624C31.592 30.4624 31.8644 30.6809 31.8644 31.0023C31.8774 31.3366 31.618 31.6194 31.2808 31.6194C31.1771 31.6194 31.0733 31.5808 30.9826 31.5295C30.8139 31.4009 30.5934 31.3238 30.386 31.3109C30.1915 31.3109 29.9969 31.4138 29.8931 31.5809C29.7504 31.7737 29.7116 32.1595 29.7116 32.6223V34.4607C29.7116 35.4378 29.7375 35.592 30.2563 35.6435L30.7491 35.6821C30.8399 35.7849 30.8269 35.9264 30.7231 36.0163C30.0747 35.9906 29.6856 35.9777 29.2058 35.9777C28.7259 35.9777 28.2979 35.9906 27.9478 36.0163C27.844 35.9264 27.8311 35.7849 27.9218 35.6821L28.1812 35.6435C28.687 35.5664 28.7 35.4378 28.7 34.4607L28.6999 32.0951Z" fill="#D8DADC"/>
<path d="M34.7176 36.2091C33.5633 36.2091 32.85 35.8492 32.5906 35.7077C32.422 35.4121 32.2534 34.4478 32.2145 33.805C32.2793 33.7021 32.4869 33.6764 32.5387 33.7664C32.7462 34.4606 33.3038 35.7848 34.8861 35.7848C36.0404 35.7848 36.598 35.0391 36.598 34.2292C36.598 33.6378 36.4683 32.9693 35.4827 32.3393L34.1858 31.5036C33.4984 31.0537 32.7073 30.2823 32.7073 29.1767C32.7073 27.891 33.7189 26.8497 35.4957 26.8497C35.9236 26.8626 36.3517 26.9139 36.7666 27.0296C36.9223 27.0811 37.0779 27.1067 37.2465 27.1067C37.4022 27.6467 37.4929 28.1996 37.4929 28.7652C37.441 28.8423 37.2206 28.8809 37.1558 28.8038C36.9742 28.1482 36.6111 27.2739 35.3012 27.2739C33.9653 27.2739 33.68 28.161 33.68 28.7781C33.68 29.5623 34.3285 30.128 34.8473 30.4494L35.9367 31.1308C36.7927 31.6578 37.6356 32.4421 37.6356 33.7278C37.6226 35.1935 36.4814 36.2091 34.7176 36.2091Z" fill="#D8DADC"/>
<path d="M43.0048 30.6938C43.1475 30.8352 43.2123 31.0409 43.2123 31.2337C43.2123 31.478 43.0826 31.7351 42.9141 31.7351C42.8363 31.7351 42.7714 31.6965 42.7196 31.6452C42.4213 31.2723 41.9155 30.9252 41.3578 30.9252C40.3981 30.9252 39.4773 31.6709 39.4773 33.1107C39.4773 34.165 40.2166 35.4248 41.682 35.4248C42.4731 35.4248 42.8882 35.0777 43.1994 34.6149C43.3162 34.602 43.4199 34.6791 43.4459 34.7948V34.8077C42.979 35.8105 41.9544 36.1833 41.1633 36.1833C40.476 36.209 39.8016 35.9519 39.2828 35.4891C38.8029 35.0263 38.4917 34.3706 38.4917 33.4835C38.4917 32.0179 39.5292 30.4623 41.7989 30.4623C42.2137 30.4624 42.6157 30.5396 43.0048 30.6938Z" fill="#D8DADC"/>
<path d="M46.338 30.8738C45.4301 30.8738 44.7687 31.7224 44.7687 33.2137C44.7687 34.4478 45.3263 35.7721 46.5325 35.7721C47.7386 35.7721 48.1018 34.525 48.1018 33.4837C48.1017 32.3394 47.6478 30.8738 46.338 30.8738ZM49.2819 33.265C49.2819 34.962 48.1017 36.1705 46.4028 36.1705C44.8335 36.1705 43.6014 35.0777 43.6014 33.3807C43.6014 31.6838 44.8984 30.4495 46.5065 30.4495C48.0369 30.4625 49.2819 31.5938 49.2819 33.265Z" fill="#D8DADC"/>
<path d="M51.8757 31.2209C51.6423 31.2209 51.6293 31.2595 51.6293 31.5423V34.075C51.6293 34.8592 51.7201 35.5791 52.6279 35.5791C52.7576 35.5791 52.8743 35.5534 53.004 35.5149C53.1207 35.4763 53.3023 35.3221 53.3412 35.3221C53.4449 35.3221 53.5098 35.4764 53.4709 35.5535C53.1077 35.9521 52.5761 36.1835 52.0313 36.1706C50.8511 36.1706 50.6047 35.5279 50.6047 34.7051V31.6068C50.6047 31.2339 50.5917 31.2082 50.3193 31.2082H49.9302C49.8524 31.1311 49.8265 31.0154 49.8913 30.9253C50.2025 30.8353 50.5008 30.6939 50.7602 30.5011C50.9937 30.2697 51.1882 29.9997 51.3309 29.704C51.3957 29.6783 51.5643 29.6783 51.6162 29.7682V30.3725C51.6162 30.6168 51.6292 30.6296 51.8626 30.6296H53.38C53.5487 30.7582 53.5097 31.1182 53.393 31.1953L51.8757 31.2209Z" fill="#D8DADC"/>
<path d="M55.9999 31.2209C55.7665 31.2209 55.7535 31.2596 55.7535 31.5423V34.075C55.7535 34.8592 55.8443 35.5792 56.7521 35.5792C56.8818 35.5792 56.9985 35.5534 57.1152 35.5149C57.2449 35.4763 57.4135 35.3221 57.4524 35.3221C57.5562 35.3221 57.6211 35.4764 57.5821 35.5535C57.219 35.9521 56.7003 36.1835 56.1425 36.1835C54.9623 36.1835 54.7159 35.5407 54.7159 34.7179V31.6196C54.7159 31.2468 54.7029 31.221 54.4305 31.221H54.0414C53.9636 31.1439 53.9377 31.0282 54.0025 30.9382C54.3137 30.8482 54.6121 30.7068 54.8844 30.5139C55.1178 30.2825 55.3123 30.0125 55.455 29.7169C55.5198 29.6911 55.6884 29.6911 55.7403 29.7811V30.3854C55.7403 30.6296 55.7533 30.6425 55.9868 30.6425H57.5042C57.6598 30.7711 57.6339 31.1311 57.5171 31.2082L55.9999 31.2209Z" fill="#D8DADC"/>
<path d="M60.7077 31.7866C60.163 31.9023 59.9036 32.2494 59.9036 32.8922C59.9036 34.2807 61.0838 35.502 62.3937 35.502C62.8865 35.502 63.1978 35.412 63.7684 35.1162C63.5479 34.872 63.3534 34.6148 63.1718 34.3449L62.8736 33.9207C62.3677 33.1622 61.7323 32.5065 60.9801 31.9923L60.7077 31.7866ZM59.8776 30.3467C59.8776 29.421 60.6299 28.6753 61.5637 28.6753H61.5896C62.2252 28.6753 62.8606 29.0611 62.8606 29.6781C62.8606 30.3594 62.1862 30.6295 61.9268 30.6295C61.8749 30.6295 61.6674 30.6166 61.8101 30.4109C61.9528 30.2437 61.9916 30.0123 61.9268 29.8067C61.8101 29.4981 61.5247 29.2924 61.1875 29.2796C60.6947 29.241 60.3057 29.5752 60.3057 30.0124C60.3057 30.4624 60.5781 30.7453 61.5118 31.2595C62.718 31.9022 63.7555 32.468 64.6504 34.2807C64.9616 33.9207 65.1173 33.4707 65.1043 32.995C65.1173 32.6608 65.0135 32.3394 64.806 32.0823C64.6893 31.928 64.5078 31.8251 64.3002 31.8122C64.0538 31.7736 63.8074 31.8508 63.6258 32.0179C63.5739 32.0694 63.5091 32.0822 63.4443 32.0565C63.3535 32.0308 63.3406 31.8894 63.3535 31.748C63.4183 31.2981 63.8852 30.9509 64.5727 30.9509C64.8061 30.9638 65.0396 30.9895 65.26 31.0409C65.4287 31.0795 65.6102 31.1051 65.7788 31.118C65.9085 31.1437 66.0253 31.0794 66.103 30.9766C66.103 30.9766 66.142 30.9123 66.1938 30.9123C66.2586 30.9123 66.3235 30.9509 66.3495 31.0152C66.3495 31.5166 66.0641 31.8122 65.4027 31.9923C65.5454 32.2623 65.6232 32.5579 65.6102 32.8665C65.6102 33.5221 65.3767 34.0621 64.8709 34.6278C65.2859 35.3735 65.675 35.6563 66.3364 35.6563C66.4531 35.6563 66.5828 35.6434 66.6995 35.6048C66.7773 35.5791 66.8552 35.5662 66.933 35.5533C66.9978 35.5533 67.0237 35.5791 67.0237 35.6433C67.0237 35.9004 66.4531 36.0933 65.7009 36.0933C65.0005 36.0933 64.6374 35.9389 64.0408 35.4248C63.133 35.939 62.5623 36.119 61.7711 36.119C60.1241 36.119 58.8401 35.0519 58.8401 33.6892C58.8401 32.2621 59.9296 31.7351 60.4093 31.5294C60.0073 31.0924 59.8647 30.7581 59.8776 30.3467Z" fill="#D8DADC"/>
<path d="M65.0913 27.3383C65.0135 27.2484 65.0265 27.1069 65.1172 27.0298L65.1302 27.017C65.4934 27.0427 66.1159 27.0556 66.5439 27.0556C66.933 27.0556 67.6203 27.0427 68.1002 27.017C68.2299 27.0556 68.2039 27.2484 68.1262 27.3383L67.8149 27.3641C67.5296 27.3898 67.361 27.4669 67.361 27.5955C67.361 27.7627 67.6464 28.444 68.0743 29.4082C68.8395 31.1051 69.6437 32.7894 70.4477 34.4606C70.7719 33.7792 71.1481 33.0207 71.4982 32.2622C71.589 32.0823 71.6669 31.9022 71.7187 31.7094C71.7057 31.5808 71.6668 31.4651 71.615 31.3623C71.1351 30.2823 70.6292 29.1896 70.1105 28.1097C69.903 27.6855 69.6956 27.4026 69.2416 27.364L68.9174 27.3382C68.8396 27.2611 68.8266 27.1326 68.9044 27.0426C68.9174 27.0297 68.9303 27.0169 68.9433 27.0169C69.3454 27.0426 69.8641 27.0555 70.4088 27.0555C71.0961 27.0555 71.602 27.0426 71.9132 27.0169C72.004 27.0555 72.0169 27.2354 71.9392 27.3382L71.576 27.364C71.0443 27.4026 71.0313 27.4925 71.2906 28.1097C71.576 28.7782 71.965 29.6267 72.3411 30.4624C72.6005 29.9353 72.847 29.421 73.1452 28.6882C73.6381 27.5311 73.5732 27.3897 73.1322 27.364L72.7173 27.3382C72.6265 27.2097 72.6525 27.0554 72.7432 27.0169C73.1064 27.0426 73.5214 27.0555 74.0272 27.0555C74.4811 27.0555 75.0258 27.0426 75.3371 27.0169C75.4278 27.0555 75.4408 27.2354 75.363 27.3382L74.9739 27.364C74.4033 27.4026 74.1569 28.0067 73.8586 28.5725C73.5733 29.0739 73.0026 30.2566 72.7951 30.7323C72.7432 30.8351 72.6914 30.938 72.6784 31.0537C72.6914 31.1694 72.7174 31.2722 72.7692 31.3751C73.2361 32.4164 73.7159 33.432 74.1699 34.4605C74.5978 33.5091 74.9999 32.5578 75.4019 31.6065C75.6743 30.9508 76.4005 29.1509 76.4913 28.9067C76.6728 28.4181 76.9063 27.8396 76.9063 27.6725C76.9063 27.4797 76.7376 27.3768 76.4524 27.364L76.0503 27.3382C75.9465 27.2097 75.9595 27.0682 76.0633 27.0169C76.5821 27.0426 76.9581 27.0555 77.3732 27.0555C77.892 27.0555 78.281 27.0426 78.6441 27.0169C78.7479 27.0555 78.7738 27.2354 78.6701 27.3382L78.4107 27.364C77.7234 27.4282 77.6066 27.8397 76.7896 29.7167L75.778 32.0179C75.1814 33.4064 74.6367 34.7306 74.0661 36.1833C74.0142 36.209 73.9624 36.2219 73.8975 36.2219C73.8327 36.2219 73.7678 36.209 73.703 36.1833C73.262 34.9748 72.4709 33.2907 72.0429 32.3393C71.5501 33.3292 70.733 35.0648 70.331 36.1833C70.2791 36.209 70.2273 36.2219 70.1624 36.2219C70.0975 36.2219 70.0197 36.209 69.9549 36.1833C69.7214 35.6177 69.1897 34.3963 69.0081 33.9978C68.1392 32.1208 67.2962 30.231 66.4143 28.354C66.1549 27.8012 65.9863 27.4283 65.4157 27.3768L65.0913 27.3383Z" fill="#D8DADC"/>
<path d="M78.2809 28.354C78.2809 27.4926 78.2161 27.3898 78.0215 27.4541L77.7103 27.1456C77.6455 27.107 77.1915 27.0557 77.3731 27.0557C78.4625 27.0557 78.709 26.5928 79.1887 26.3099C79.2277 26.2842 79.2925 26.3099 79.3055 26.3486C79.3184 26.3614 79.3184 26.3743 79.3184 26.3872C79.3054 26.7985 79.2795 27.4671 79.2795 28.0713V30.9124C79.2795 31.0281 79.2925 31.1438 79.3314 31.1696C79.8243 30.7839 80.4727 30.4625 81.173 30.4625C82.4699 30.4625 82.9368 31.2596 82.9368 32.2109V34.4736C82.9368 35.4507 82.9628 35.592 83.4556 35.6564L83.8188 35.6949C83.9095 35.7978 83.8965 35.9392 83.7928 36.0292C83.3 36.0035 82.898 35.9906 82.4311 35.9906C81.9642 35.9906 81.5233 36.0035 81.1601 36.0292C81.0564 35.9392 81.0434 35.7978 81.1342 35.6949L81.4065 35.6564C81.9124 35.5792 81.9253 35.4507 81.9253 34.4736V32.5323C81.9253 31.6709 81.4974 31.0796 80.6284 31.0796C80.2393 31.0667 79.8633 31.2082 79.5649 31.4525C79.3185 31.6581 79.2796 31.7225 79.2796 32.1982V34.4737C79.2796 35.4508 79.3055 35.5792 79.7984 35.6564L80.0837 35.695C80.1745 35.7465 80.1486 35.9907 80.0578 36.0293C79.6428 36.0036 79.2537 35.9907 78.7738 35.9907C78.294 35.9907 77.866 36.0036 77.438 36.0293C77.3342 35.9393 77.3213 35.7979 77.412 35.695L77.7492 35.6564C78.255 35.605 78.268 35.4508 78.268 34.4737L78.2809 28.354Z" fill="#D8DADC"/>
<path d="M86.257 28.6754C86.257 29.164 85.9198 29.3825 85.5307 29.3825C85.1545 29.3954 84.8433 29.1125 84.8303 28.7525V28.7139C84.8174 28.3282 85.1157 27.994 85.5047 27.9811H85.5695C85.9456 27.9811 86.2569 28.2768 86.2569 28.6496L86.257 28.6754ZM85.1286 32.108C85.1286 31.5809 85.1286 31.5166 84.7654 31.2723L84.6487 31.1952C84.5839 31.1181 84.5968 31.0153 84.6617 30.9509C85.1545 30.771 85.6214 30.5524 86.0624 30.2824C86.1272 30.2696 86.1791 30.3082 86.205 30.3595C86.1791 30.8352 86.1531 31.4909 86.1531 32.0437V34.4863C86.1531 35.4634 86.1791 35.5919 86.6719 35.6691L86.9573 35.7077C87.048 35.8106 87.0351 35.952 86.9313 36.042C86.5164 36.0162 86.1273 36.0034 85.6474 36.0034C85.1675 36.0034 84.7396 36.0162 84.3634 36.042C84.2597 35.952 84.2467 35.8106 84.3375 35.7077L84.6228 35.6691C85.1287 35.6049 85.1416 35.4634 85.1416 34.4863L85.1286 32.108Z" fill="#D8DADC"/>
<path d="M89.4084 31.2209C89.1749 31.2209 89.1619 31.2595 89.1619 31.5423V34.075C89.1619 34.8592 89.2527 35.5791 90.1605 35.5791C90.2902 35.5791 90.4069 35.5534 90.5237 35.5149C90.6404 35.4764 90.8219 35.3221 90.8608 35.3221C90.9646 35.3221 91.0295 35.4764 91.0035 35.5535C90.6404 35.9521 90.1087 36.1835 89.5639 36.1706C88.3837 36.1706 88.1373 35.5279 88.1373 34.7051V31.6068C88.1373 31.2339 88.1243 31.2082 87.8519 31.2082H87.4758C87.398 31.1311 87.3721 31.0154 87.4369 30.9253C87.7481 30.8353 88.0464 30.6939 88.3058 30.5011C88.5393 30.2697 88.7338 29.9997 88.8765 29.704C88.9413 29.6783 89.1099 29.6783 89.1618 29.7682V30.3725C89.1618 30.6168 89.1748 30.6296 89.4083 30.6296H90.9257C91.0943 30.7582 91.0683 31.1182 90.9386 31.1953L89.4084 31.2209Z" fill="#D8DADC"/>
<path d="M93.4288 32.108C94.4404 32.108 94.7387 32.0565 94.8555 31.9794C94.8944 31.9537 94.9332 31.9023 94.9332 31.7223C94.9332 31.3366 94.6738 30.8737 93.8827 30.8737C93.0916 30.8737 92.3783 31.6066 92.3654 32.0565C92.3654 32.0823 92.3654 32.1208 92.4561 32.1208L93.4288 32.108ZM92.5858 32.5194C92.2356 32.5194 92.2227 32.5452 92.2227 32.8923C92.2227 34.255 93.0267 35.4249 94.4923 35.4249C94.9462 35.4249 95.3223 35.2964 95.7503 34.7564C95.8411 34.7178 95.9448 34.7693 95.9837 34.8593C95.9967 34.8721 95.9967 34.8979 95.9967 34.9235C95.5428 35.8492 94.5571 36.1834 93.8568 36.1834C92.9749 36.1834 92.2746 35.8106 91.8725 35.2835C91.4964 34.7692 91.2889 34.1522 91.3019 33.5222C91.3019 31.8508 92.4043 30.4624 94.0513 30.4624C95.2315 30.4624 95.9966 31.2595 95.9966 32.0694C96.0096 32.1851 95.9837 32.3137 95.9447 32.4165C95.9058 32.4936 95.7113 32.5065 95.1406 32.5065L92.5858 32.5194Z" fill="#D8DADC"/>
<path d="M33.3947 40.5416V41.8658H34.8083V40.5416H35.5735V43.9999H34.8083V42.5086H33.3947V43.9999H32.6295V40.5416H33.3947Z" fill="#D8DADC"/>
<path d="M41.4226 40.5416V41.1844H39.581V41.9172H41.28V42.5086H39.581V43.3571H41.4616V43.9999H38.8159V40.5416H41.4226Z" fill="#D8DADC"/>
<path d="M46.338 42.6629L45.897 41.3902H45.884L45.4301 42.6629H46.338ZM46.286 40.5416L47.5959 43.9999H46.8048L46.5454 43.2286H45.2355L44.9632 43.9999H44.185L45.5079 40.5416H46.286Z" fill="#D8DADC"/>
<path d="M51.2403 40.5416V43.3571H52.9392V43.9999H50.4621V40.5416H51.2403Z" fill="#D8DADC"/>
<path d="M55.6628 41.1845V40.5417H58.516V41.1845H57.4655V44H56.7004V41.1845H55.6628Z" fill="#D8DADC"/>
<path d="M62.251 40.5416V41.8658H63.6647V40.5416H64.4299V43.9999H63.6647V42.5086H62.251V43.9999H61.4859V40.5416H62.251Z" fill="#D8DADC"/>
<path d="M49.1522 22.5688C49.217 22.5688 49.2819 22.5688 49.2819 22.4788C49.2819 22.3888 49.2171 22.4017 49.1651 22.4017H49.0614V22.556H49.1522V22.5688ZM49.0614 22.8644H48.9836V22.3501H49.1781C49.3078 22.3501 49.3597 22.4016 49.3597 22.4916C49.3726 22.5558 49.3207 22.6201 49.2429 22.633H49.23L49.3726 22.8644H49.2949L49.1522 22.6459H49.0614V22.8644ZM49.1522 22.9801C49.3597 22.9801 49.5283 22.8258 49.5413 22.6201C49.5413 22.4145 49.3856 22.2473 49.1781 22.2344C48.9706 22.2344 48.802 22.3887 48.789 22.5944V22.6073C48.7761 22.813 48.9447 22.9801 49.1392 22.9801H49.1522ZM48.6983 22.6073C48.6983 22.3501 48.8928 22.1445 49.1522 22.1445C49.4116 22.1445 49.6191 22.3373 49.6191 22.5944C49.6191 22.8516 49.4246 23.0572 49.1651 23.0572C48.9057 23.0572 48.6983 22.8644 48.6983 22.6073Z" fill="#D8DADC"/>
<path d="M41.1187 14.7265H48.1221L44.5944 18.2233H41.1187V14.7265Z" fill="#D8DADC"/>
<path d="M48.2184 24.9913V14.822L44.6908 18.3189V24.9912L48.2184 24.9913Z" fill="#D8DADC"/>
<path d="M59.0401 14.7265H48.7815L52.3091 18.2233H59.04L59.0401 14.7265Z" fill="#D8DADC"/>
<path d="M48.6853 21.7643V14.822L52.2129 18.3189V21.7643H48.6853Z" fill="#D8DADC"/>
<path d="M37.8643 14.2636H48.1229L44.5953 10.7667H37.8643V14.2636Z" fill="#D8DADC"/>
<path d="M48.2184 7.22605V14.1684L44.6908 10.6586V7.22605H48.2184Z" fill="#D8DADC"/>
<path d="M55.7848 14.2636H48.7815L52.3091 10.7667H55.7848V14.2636Z" fill="#D8DADC"/>
<path d="M48.6853 4V14.1692L52.2129 10.6594V4H48.6853Z" fill="#D8DADC"/>
</svg>
