<svg width="96" height="48" viewBox="0 0 96 48" fill="none" xmlns="http://www.w3.org/2000/svg">
<path fill-rule="evenodd" clip-rule="evenodd" d="M16.0671 27.3845C17.302 29.4061 19.5617 30.7648 22.0767 30.7648C25.7935 30.7648 27.8433 27.5533 27.8433 27.5533L28.1068 28.4097C26.3862 30.6495 23.3115 32 19.8704 32C15.9107 32 12.4944 30.1101 10.922 27.3845C10.3293 26.3592 10 25.2105 10 24.0041C9.99589 19.5821 14.4166 16 19.8704 16C23.7231 16 26.8266 17.6511 28.4525 20.0432L21.9861 23.9135L25.6741 18.2481C24.6204 17.5852 23.3238 16.9635 21.9861 16.9635C18.1993 16.9635 15.0834 20.1215 15.0834 23.9094C15.0834 25.1776 15.4415 26.3716 16.063 27.3845H16.0671Z" fill="#D8DADC"/>
<path fill-rule="evenodd" clip-rule="evenodd" d="M33.3753 27.3803C33.3548 27.508 33.3465 27.6397 33.3465 27.7715C33.3465 29.2084 34.5114 30.3737 35.9479 30.3737C37.3844 30.3737 38.5493 29.2084 38.5493 27.7715C38.5493 27.6397 38.541 27.508 38.5205 27.3803C38.3311 26.1287 37.2527 25.1693 35.9479 25.1693C34.6431 25.1693 33.5647 26.1287 33.3753 27.3803ZM43.0276 27.3803L44.3201 31.7365H39.7841L38.8909 28.7514C38.2941 30.4683 36.2772 31.7365 33.8857 31.7365C31.0209 31.7365 28.6994 29.9249 28.6994 27.6933C28.6994 27.5903 28.7036 27.4833 28.7159 27.3803C28.9217 25.297 31.1568 23.6541 33.8857 23.6541C35.4334 23.6541 36.8246 24.1853 37.7755 25.0252L36.5406 20.8955H31.3337C31.3337 20.8955 32.1981 20.3767 36.0385 18.9768C39.8788 17.5811 41.0971 20.8955 41.0971 20.8955L43.0235 27.3845L43.0276 27.3803Z" fill="#D8DADC"/>
<path fill-rule="evenodd" clip-rule="evenodd" d="M57.5287 27.3803V31.7365H52.861V22.1637C52.861 21.4596 52.2889 20.8873 51.585 20.8873C51.0458 20.8873 50.5807 21.2249 50.3955 21.6984V31.7324H45.8142V20.8873H43.1429C43.1429 20.8873 46.8597 18.6351 48.1481 18.6351C49.3706 18.6351 50.272 19.5739 50.3872 20.7679C52.186 19.8003 53.9683 18.6351 55.1907 18.6351C56.4132 18.6351 57.4875 19.6439 57.5246 20.9038V27.3762L57.5287 27.3803Z" fill="#D8DADC"/>
<path fill-rule="evenodd" clip-rule="evenodd" d="M65.3699 29.5296C65.3822 30.4519 66.1396 31.1848 67.0657 31.1848C67.9918 31.1848 68.7821 30.4148 68.7821 29.4678C68.7821 29.402 68.7821 29.3361 68.7698 29.2702L66.2795 20.7555C66.1848 19.895 65.4563 19.228 64.5713 19.228C63.6864 19.228 62.8631 20.0473 62.7561 20.8914L65.3699 29.5296ZM72.145 27.3803C71.26 30.0607 68.7368 31.9959 65.7609 31.9959C62.7849 31.9959 60.2618 30.0607 59.3768 27.3803C59.1587 26.7174 59.0393 26.0093 59.0393 25.2723C59.0393 21.5584 62.0482 18.5486 65.7609 18.5486C69.4736 18.5486 72.4825 21.5584 72.4825 25.2723C72.4825 26.0093 72.3631 26.7174 72.145 27.3803Z" fill="#D8DADC"/>
<path fill-rule="evenodd" clip-rule="evenodd" d="M79.8709 27.3803V31.7365H75.2897V20.8873H72.7295C72.7295 20.8873 76.3352 18.6351 77.6235 18.6351C78.846 18.6351 79.7474 19.5739 79.8627 20.7679C81.6614 19.8003 83.4437 18.6351 84.6662 18.6351C85.8886 18.6351 86.963 19.6439 87 20.9038V31.7324H82.3323V22.1637C82.3323 21.4596 81.7602 20.8873 81.0563 20.8873C80.5171 20.8873 80.052 21.2249 79.8668 21.6984V27.3762L79.8709 27.3803Z" fill="#D8DADC"/>
</svg>
