<svg width="96" height="48" viewBox="0 0 96 48" fill="none" xmlns="http://www.w3.org/2000/svg">
<path d="M23.3256 30.9462V17.0534C23.3256 14.3317 23.4183 13.8669 27.5374 12.717C35.291 10.5545 42.1399 10.128 47.622 10.1226V8H21V40H47.6218V38.0641C42.1397 38.058 35.291 37.4459 27.5373 35.283C23.4183 34.1331 23.3256 33.6683 23.3256 30.9462Z" fill="#D8DADC"/>
<path d="M72.6748 30.9462V17.0534C72.6748 14.3317 72.5821 13.8669 68.4626 12.717C60.7085 10.5545 53.8599 10.128 48.3782 10.1226V8H75V40H48.3782V38.0641C53.8599 38.058 60.7085 37.4459 68.4626 35.283C72.5821 34.1331 72.6748 33.6683 72.6748 30.9462Z" fill="#D8DADC"/>
<path d="M33.9083 18.205V22.5335H28.9294V18.205H25.9072V29.7663H28.9294V25.4249H33.9083V29.7663H36.9317V18.205H33.9083Z" fill="#D8DADC"/>
<path d="M47.4326 21.0979V18.205C47.4326 18.205 41.7115 18.205 40.1741 18.205C38.6362 18.205 38.1201 18.5438 38.1201 20.5664V27.4035C38.1201 29.4267 38.6364 29.7663 40.1741 29.7663C41.7115 29.7663 47.4326 29.7663 47.4326 29.7663V26.8665H41.0848V25.4249H47.4326V22.5333H41.0848V21.0979H47.4326Z" fill="#D8DADC"/>
<path d="M56.7697 22.5335H51.5258V21.098H58.5816V18.205C58.5816 18.205 52.2829 18.205 50.651 18.205C49.018 18.205 48.5612 18.5812 48.5612 20.5791V23.1542C48.5612 25.4732 49.0137 25.4249 50.651 25.4249C52.2869 25.4249 55.8939 25.4249 55.8939 25.4249V26.8665H48.5602V29.7663C48.5602 29.7663 55.1379 29.7663 56.7697 29.7663C58.4023 29.7663 58.8588 29.3897 58.8588 27.3926V24.8766C58.8588 22.5569 58.4069 22.5335 56.7697 22.5335Z" fill="#D8DADC"/>
<path d="M68.0019 22.5335H62.7582V21.098H69.814V18.205C69.814 18.205 63.5153 18.205 61.8824 18.205C60.2498 18.205 59.7937 18.5812 59.7937 20.5791V23.1542C59.7937 25.4732 60.2459 25.4249 61.8824 25.4249C63.5191 25.4249 67.1261 25.4249 67.1261 25.4249V26.8665H59.7926V29.7663C59.7926 29.7663 66.3696 29.7663 68.0019 29.7663C69.6341 29.7663 70.0913 29.3897 70.0913 27.3926V24.8766C70.0913 22.5569 69.6384 22.5335 68.0019 22.5335Z" fill="#D8DADC"/>
</svg>
