<svg width="96" height="48" viewBox="0 0 96 48" fill="none" xmlns="http://www.w3.org/2000/svg">
<path d="M75.4454 29.6382V28.1307L76.9178 27.9497C77.4479 27.8894 77.6245 27.407 77.6834 27.2864L81.3939 21.196C81.6883 20.7136 81.3939 20.2915 81.0405 20.2312L79.0969 19.9899V18.4824H87.4601C87.9313 18.4824 88.2258 18.8442 88.4025 19.0854L93.2908 26.7437C93.7031 27.3467 93.9975 27.8291 94.4687 27.8894L96 28.0704V29.6382H86.5767V28.1307L87.7546 28.01C88.3436 27.9497 88.8147 27.6482 88.3436 26.9849L87.8724 26.2613H81.2172L80.6871 27.1055C80.3926 27.6482 80.6871 27.9497 81.1583 28.01L82.3362 28.1307V29.6382H75.4454ZM82.454 24.2111H86.6945L84.5153 20.7739L82.454 24.2111Z" fill="#D8DADC"/>
<path d="M69.2025 18.4824H58.4245V19.9899L59.7791 20.1106C60.2503 20.1106 60.4859 20.5327 60.4859 21.0754V27.0452C60.4859 27.4673 60.3092 27.8291 59.8969 27.8894L58.4245 28.0704V29.5176H69.2025C74.1497 29.5176 76.2699 27.0452 76.2699 23.7889C76.3288 20.9548 74.1497 18.4824 69.2025 18.4824ZM67.5534 27.4673H64.7853V20.593H67.5534C70.2037 20.593 71.3227 21.196 71.3227 24.0301C71.3227 26.8643 70.2037 27.4673 67.5534 27.4673Z" fill="#D8DADC"/>
<path d="M0 29.6382H8.71657V28.1307L7.24417 27.9497C6.8908 27.8894 6.53742 27.7085 6.53742 26.9246V25.1156H13.2515V26.804C13.2515 27.2864 13.1926 27.7688 12.6037 27.8291L11.0724 28.01V29.6382H19.789V28.1307L18.2577 27.9497C17.9632 27.8894 17.6098 27.6482 17.6098 27.0452V21.196C17.6098 20.593 17.8454 20.2312 18.2577 20.1709L19.789 19.9899V18.4824H11.0724V19.9899L12.6037 20.1709C13.0748 20.2312 13.2515 20.6533 13.2515 21.196V22.9447H6.53742V21.196C6.53742 20.5327 6.77301 20.2312 7.24417 20.1709L8.71657 19.9899V18.4824H0V19.9899L1.47239 20.1709C2.06135 20.1709 2.17914 20.6533 2.17914 21.2563V26.9246C2.17914 27.5276 2.00245 27.9497 1.47239 28.01L0 28.191V29.6382Z" fill="#D8DADC"/>
<path d="M20.2012 23.9698C20.2012 20.4724 22.9693 18 29.0945 18C35.2196 18 37.9877 20.4724 37.9877 23.9698C37.9877 27.4673 35.2196 30 29.0945 30C22.9693 30 20.2012 27.5879 20.2012 23.9698ZM29.0945 20.1709C26.6209 20.1709 25.2074 21.1357 25.2074 23.9698C25.2074 26.804 26.6209 27.8291 29.0945 27.8291C31.5681 27.8291 32.9816 26.8643 32.9816 23.9698C32.9816 21.0754 31.5681 20.1709 29.0945 20.1709Z" fill="#D8DADC"/>
<path d="M38.4589 29.6382H45.4086V28.1307L43.8773 27.9497C43.465 27.8894 43.1706 27.5276 43.1706 27.0452V21.3769L48.9423 29.1558C49.119 29.397 49.4724 29.5779 49.8258 29.5779H55.3031V21.196C55.3031 20.7739 55.4209 20.2312 55.9509 20.1709L57.5411 19.9899V18.4824H50.5914V19.9899L52.1227 20.1709C52.6528 20.1709 52.7706 20.7136 52.7706 21.196V26.6834L46.9988 18.9648C46.7632 18.6633 46.5276 18.4824 46.1153 18.4824H38.4589V19.9899L39.9313 20.1709C40.4614 20.1709 40.638 20.5327 40.638 21.2563V26.9246C40.638 27.5879 40.4614 27.8894 39.9313 28.01L38.5178 28.191V29.6382" fill="#D8DADC"/>
</svg>
