<svg width="96" height="48" viewBox="0 0 96 48" fill="none" xmlns="http://www.w3.org/2000/svg">
<path d="M23.5213 33.4563V40.4789L21.1232 33.7099C21.0722 33.5324 20.9446 33.4563 20.6895 33.4563H18.47V42H20.0007V35.0535L22.3733 41.7211C22.4243 41.8986 22.5774 41.9746 22.756 41.9746H25.052V33.431H23.5213V33.4563ZM31.43 33.4563V42H33.2158V38.3493H36.4048V36.7775H33.2158V35.0028H36.4559V33.431H31.43V33.4563ZM72.3256 33.4563V35.1042H74.29V42H76.0759V35.0789H78.0403V33.431H72.3001L72.3256 33.4563ZM42.6553 42H44.5686V33.4563H42.6553V42ZM64.3404 42H66.2538V33.4563H64.3404V42ZM84.1121 42H86V33.4563H84.1121V42ZM10 42H11.9134V33.4563H10V42ZM57.7838 33.4563H56.2531V40.4789L53.855 33.7099C53.804 33.5324 53.6764 33.4563 53.4468 33.4563H51.2017V42H52.7325V35.0535L55.1051 41.7211C55.1561 41.8986 55.3092 41.9746 55.4877 41.9746H57.7838V33.431V33.4563ZM55.7939 19.4366L48.0128 9.04225L40.2316 19.4366C37.6039 19.1831 33.0883 17.4845 33.0883 14.4676C33.0883 10.6648 39.7214 7.11549 48.0383 7.11549C56.7889 7.11549 62.9883 10.6648 62.9883 14.4676C62.9883 17.5099 58.4471 19.2085 55.8449 19.4113M48.0128 6C37.2467 6 29.7462 10.1831 29.7462 15.5831C29.7462 18.1183 31.379 20.9577 34.8486 22.6817C38.0886 24.2789 42.6297 24.8366 43.2675 24.9127L48.0128 11.1465L52.758 24.9127C55.6604 24.5896 58.498 23.8376 61.1769 22.6817C64.6465 20.9577 66.2793 18.1183 66.2793 15.5831C66.2538 10.1577 58.7788 6 48.0128 6Z" fill="#D8DADC"/>
</svg>
