<svg width="96" height="48" viewBox="0 0 96 48" fill="none" xmlns="http://www.w3.org/2000/svg">
<g clip-path="url(#clip0_1_2571)">
<path d="M15.6617 40.5233L15.3757 46.899C15.3486 47.5113 15.7993 47.6374 16.3568 47.6734V47.8895C15.9622 47.8715 15.5676 47.8355 15.1712 47.8355C14.7765 47.8355 14.3946 47.8715 14 47.8895V47.6734C14.5593 47.6374 14.9539 47.5113 14.9811 46.899L15.2816 40.8655C15.3214 40.2171 14.858 40.1271 14.3005 40.1091V39.8749C14.6408 39.8749 14.9685 39.8929 15.3087 39.8929C15.6074 39.8929 15.8934 39.8749 16.1795 39.8389L18.4422 46.1966L20.7448 39.8389L21.0037 39.8749C21.2082 39.8749 21.4272 39.8929 21.6445 39.8929C21.9721 39.8929 22.2997 39.8749 22.6256 39.8749V40.1091C22.068 40.1271 21.6318 40.2351 21.6445 40.8655L21.782 46.899C21.8092 47.5113 22.1893 47.6374 22.7758 47.6734V47.8895L22.2726 47.8535C21.9721 47.8355 21.6861 47.8175 21.3856 47.8175C21.0869 47.8175 20.7864 47.8355 20.4859 47.8535L19.9953 47.8895V47.6734C20.5692 47.6374 20.9909 47.5113 20.9765 46.899L20.8823 40.5233L18.3191 47.6374H18.1707L15.6617 40.5233Z" fill="#D8DADC"/>
<path d="M29.3178 43.0267V47.2772C29.3178 47.6734 28.7585 47.6914 28.4725 47.7094V47.8895C28.8816 47.8715 29.2889 47.8355 29.698 47.8355C30.1071 47.8355 30.5162 47.8715 30.9253 47.8895V47.7094C30.4619 47.6734 30.0673 47.6194 30.0673 47.0791V44.6837C30.0673 43.9993 30.1759 42.6305 31.1027 42.5585C31.2656 42.5405 31.5118 42.6305 31.5245 42.8286C31.5245 42.9367 31.4702 43.0267 31.4702 43.1348C31.4702 43.3689 31.6874 43.531 31.9064 43.549C32.2341 43.549 32.3825 43.2609 32.3825 42.9727C32.3825 42.4684 31.9191 42.0902 31.4159 42.0902C30.7334 42.0902 30.203 42.5585 30.0112 43.1888C30.0112 42.7926 29.9714 42.3964 29.9297 42.0181C29.4536 42.1442 28.963 42.2703 28.4725 42.2883V42.4684C28.963 42.4864 29.3178 42.4684 29.3178 43.0267Z" fill="#D8DADC"/>
<path d="M36.1314 41.9821L35.8165 42.5765C35.5033 42.2883 35.1503 42.0902 34.6869 42.0902C33.1193 42.0902 32.3825 43.6391 32.3825 45.0259C32.3825 46.3947 33.0233 47.9976 34.6308 47.9976C35.7766 47.9976 36.3487 47.043 36.4573 46.0345H35.9939C35.8581 46.7909 35.5848 47.6194 34.6598 47.6194C33.3637 47.6194 33.2279 45.9804 33.2279 45.0259C33.2279 44.1254 33.4469 42.3784 34.6724 42.3784C35.5304 42.3784 35.9396 43.1168 36.0898 43.8372H36.3215V41.9821H36.1314Z" fill="#D8DADC"/>
<path d="M41.1855 46.0165H41.6634C41.486 47.2231 40.7782 47.9976 39.5237 47.9976C37.9163 47.9976 37.2755 46.5027 37.2755 45.1159C37.2755 43.7291 37.8891 42.0902 39.5237 42.0902C41.0914 42.0902 41.6489 43.495 41.6362 44.8458H38.0104C38.0394 45.9624 38.1878 47.6194 39.6595 47.6194C40.6008 47.6194 41.0642 46.8449 41.1855 46.0165ZM40.8995 44.4315V44.2695C40.818 43.423 40.5465 42.3964 39.4966 42.3964C38.501 42.3964 38.0937 43.6031 38.0521 44.4315H40.8995Z" fill="#D8DADC"/>
<path d="M47.5375 47.5293V47.6914C47.0469 47.7635 46.5835 47.8175 46.1056 47.9616C46.0368 47.6194 45.9825 47.2772 45.9699 46.917C45.6839 47.5473 45.139 47.9616 44.4294 47.9616C42.9033 47.9616 42.3314 46.2866 42.3314 45.0259C42.3314 43.7652 42.9179 42.1262 44.4294 42.1262C45.1661 42.1262 45.5879 42.5765 45.9282 43.1888V40.8655C45.9282 40.3072 45.6024 40.2351 45.0847 40.2351V40.073L45.2331 40.037C45.7237 39.983 46.2016 39.929 46.6776 39.7849V46.7008C46.6776 47.3312 46.8967 47.5293 47.5375 47.5293ZM45.9282 45.0619C45.9282 44.1074 45.7653 42.4504 44.4837 42.4504C43.2582 42.4504 43.1351 44.1074 43.1351 44.9899C43.1351 45.8904 43.2437 47.6374 44.5253 47.6374C45.8196 47.6374 45.9282 45.9984 45.9282 45.0619Z" fill="#D8DADC"/>
<path d="M52.0757 46.0165H52.5517C52.4431 47.2231 51.6249 47.9976 50.4121 47.9976C48.8173 47.9976 48.1494 46.5027 48.1494 45.1159C48.1494 43.7291 48.7775 42.0902 50.4121 42.0902C51.9924 42.0902 52.5372 43.495 52.5372 44.8458H48.9132C48.8988 45.9624 49.1033 47.6194 50.5479 47.6194C51.4747 47.6194 51.9797 46.8449 52.0757 46.0165ZM51.8023 44.4315C51.7208 43.549 51.5018 42.3964 50.3976 42.3964C49.4038 42.3964 49.0635 43.513 48.9549 44.3235L48.9404 44.4315H51.8023Z" fill="#D8DADC"/>
<path d="M53.5328 47.9976L53.8044 47.4933C54.2008 47.8175 54.7185 47.9616 55.2217 47.9616C56.1902 47.9616 57.1171 47.3312 57.1171 46.2866C57.1171 45.4942 56.5721 45.0979 55.8771 44.8278L55.3322 44.6116C54.8416 44.4315 54.0506 44.1614 54.0506 43.513C54.0506 42.8646 54.5683 42.4144 55.2217 42.4144C56.0671 42.4144 56.4075 43.0988 56.4907 43.8372H56.7224V42.0181H56.5305L56.3676 42.4684C56.0128 42.2523 55.6182 42.1262 55.1946 42.1262C54.2823 42.1262 53.4369 42.7206 53.4369 43.6751C53.4369 45.5842 56.4907 45.0259 56.4907 46.4667C56.4907 47.1691 55.8626 47.6374 55.1946 47.6374C54.2008 47.6374 53.7646 46.899 53.56 46.0345L53.3138 46.0525L53.3283 47.9976H53.5328Z" fill="#D8DADC"/>
<path d="M57.6348 44.7918H59.8142V44.4135H57.6348V44.7918Z" fill="#D8DADC"/>
<path d="M70.2934 46.0165H70.7714C70.6627 47.1871 69.83 48.0516 68.619 47.9976C67.0369 47.9075 66.3689 46.5568 66.3689 45.1159C66.3689 43.7291 66.9971 42.0902 68.619 42.0902C70.1993 42.0902 70.7568 43.495 70.7568 44.8638H67.1184C67.1057 45.9624 67.3229 47.6194 68.7548 47.6194C69.7088 47.6194 70.1577 46.8449 70.2934 46.0165ZM70.0075 44.4315C69.9948 43.549 69.6816 42.3964 68.6045 42.3964C67.6234 42.3964 67.2686 43.531 67.16 44.3235L67.1455 44.4315H70.0075Z" fill="#D8DADC"/>
<path d="M72.1616 43.0447V47.0971C72.1616 47.6374 71.7652 47.6734 71.2891 47.7094V47.9075C71.7108 47.8715 72.12 47.8355 72.529 47.8355C72.9382 47.8355 73.3473 47.8715 73.769 47.9075V47.7094C73.3056 47.6734 72.8965 47.6194 72.8965 47.0971V44.2334C72.8965 43.3869 73.3327 42.6305 74.3012 42.6305C75.2281 42.6305 75.4037 43.441 75.4037 44.1974V47.2772C75.4037 47.6914 74.8316 47.6914 74.5329 47.7094V47.9075C74.9403 47.8715 75.3493 47.8355 75.7729 47.8355C76.1947 47.8355 76.6038 47.8715 77.0256 47.9075V47.7094C76.5495 47.6734 76.1549 47.6374 76.1549 47.0971V44.1614C76.1549 43.0988 75.6227 42.1262 74.4098 42.1262C73.7292 42.1262 73.2097 42.4864 72.8422 43.0447V42.9007C72.8296 42.5765 72.8024 42.2883 72.7608 41.9821C72.2974 42.1622 71.8068 42.2703 71.3162 42.3423V42.5224C71.7941 42.5224 72.1616 42.5044 72.1616 43.0447Z" fill="#D8DADC"/>
<path d="M81.6054 47.8715L81.8914 46.2506H81.6995C81.428 47.007 81.1003 47.6014 80.2278 47.6014H78.6077L82 42.2163H78.1298L77.871 43.6931H78.0755C78.3344 43.0087 78.6077 42.5044 79.4114 42.5044H80.9645L77.5849 47.8715H81.6054Z" fill="#D8DADC"/>
<path d="M27.3955 46.0165H27.8733C27.7629 47.2231 26.9465 47.9976 25.7337 47.9976C24.1244 47.9976 23.4854 46.5207 23.4854 45.1159C23.4854 43.7291 24.0972 42.0902 25.7337 42.0902C27.314 42.0902 27.8589 43.495 27.8589 44.8458H24.2348C24.2204 45.9624 24.4249 47.6194 25.8694 47.6194C26.7818 47.6194 27.3266 46.8449 27.3955 46.0165ZM27.1239 44.4315C27.0678 43.549 26.8089 42.3964 25.7065 42.3964C24.6693 42.3964 24.3706 43.6031 24.262 44.4315H27.1239Z" fill="#D8DADC"/>
<path d="M65.5743 45.5842C65.5743 47.025 64.5642 47.8715 62.8137 47.8715H59.874V47.6374C60.6813 47.5834 60.8587 47.4573 60.8587 46.8449V40.9015C60.8587 40.3072 60.6831 40.1631 59.874 40.1271V39.8929H62.8988C64.3596 39.8929 65.1851 40.5953 65.1851 41.82C65.1851 42.6665 64.7832 43.2429 63.9089 43.6211C64.9371 43.8012 65.5743 44.5576 65.5743 45.5842ZM62.5494 43.531C63.775 43.531 64.318 43.0087 64.318 41.8561C64.318 40.7214 63.8437 40.2171 62.7812 40.2171H61.6552V43.531H62.5494ZM61.6552 46.8629C61.6552 47.4213 61.7819 47.5293 62.4734 47.5293H62.9169C64.032 47.5293 64.7054 46.8089 64.7054 45.6382C64.7054 44.4315 64.1261 43.8552 62.9115 43.8552H61.6552V46.8629Z" fill="#D8DADC"/>
<path d="M63.9632 15.9572C63.9632 24.7282 56.7387 31.9144 47.9267 31.9144C39.1219 31.9144 31.8901 24.7282 31.8901 15.9572C31.8901 7.18614 39.1146 0 47.9267 0C56.7441 0 63.9632 7.18614 63.9632 15.9572ZM44.3733 17.7402L44.3534 17.7762L44.404 17.7582L47.4759 15.9572L46.9311 15.651L44.3733 17.7402ZM58.3968 21.8466H58.4548L58.4222 21.7925L49.1033 15.5609L48.3955 15.9572L58.3968 21.8466ZM47.8307 4.79075L47.8054 4.75474L47.7782 4.79075L47.1302 15.2188L47.7077 15.5609L47.8307 4.79075ZM57.5479 4.7007L57.5678 4.75474C58.3262 5.45714 59.0449 6.21358 59.6948 7.02404C61.7186 9.5455 62.7739 12.7333 62.7739 15.9572C62.7739 18.4966 62.0915 20.9461 60.8714 23.1613L61.0379 23.4675L60.6904 23.4855C58.024 27.9161 53.1256 30.7077 47.9267 30.7077C42.7205 30.7077 37.8493 27.9341 35.1811 23.4855L34.8535 23.4675L34.9892 23.1613C34.2108 21.7385 33.6768 20.2256 33.3618 18.6407L33.3311 18.6047L33.3111 18.6587C33.5175 20.3337 34.0497 21.9726 34.8535 23.4675C37.4764 28.3663 42.3675 31.248 47.9339 31.248C56.3839 31.248 63.2753 24.35 63.2753 15.9572C63.2753 11.6527 61.0452 7.31221 57.6004 4.7007H57.5479ZM47.6823 1.5489C39.8098 1.69298 33.4524 8.08666 33.4524 15.9572C33.4524 18.4066 34.1275 20.7659 35.2462 22.9272L45.291 14.7325L46.1147 15.2007L35.1431 23.2153L35.0978 23.3234H35.2209L47.695 16.3354L47.6696 18.8388L35.5087 23.3774C38.0864 27.6819 42.8997 30.3474 47.9267 30.3474C52.9789 30.3474 57.7289 27.6819 60.3374 23.3774L48.1837 18.8388L48.1512 16.3354L60.6596 23.3234H60.7682L60.7175 23.2334L49.7387 15.2007L50.5551 14.7325L60.6071 22.9272C61.7584 20.784 62.4191 18.4066 62.4191 15.9572C62.4191 8.01461 56.0888 1.78303 48.191 1.53088L50.298 14.3002L48.1457 15.5609L47.99 1.29675L47.9267 1.22471L47.8687 1.29675L46.3518 14.7505L45.5426 14.3002L47.6823 1.5489ZM37.6882 27.6819C34.571 24.5661 32.7771 20.3877 32.7771 15.9572C32.7771 7.65441 39.5835 0.882513 47.9267 0.882513C55.2344 0.882513 61.4615 6.14153 63.288 13.0395L63.326 13.0575L63.3459 13.0215C61.8869 5.72729 55.4535 0.360221 47.9267 0.360221C39.3083 0.360221 32.2449 7.38426 32.2449 15.9572C32.2449 20.4778 34.2633 24.7462 37.6556 27.736H37.7009L37.6882 27.6819Z" fill="#D8DADC"/>
</g>
<defs>
<clipPath id="clip0_1_2571">
<rect width="96" height="48" fill="white" transform="translate(0 0.00195312)"/>
</clipPath>
</defs>
</svg>
