<svg width="96" height="48" viewBox="0 0 96 48" fill="none" xmlns="http://www.w3.org/2000/svg">
<g clip-path="url(#clip0_1_2569)">
<path d="M27.3335 35.7459V39.9247H26V33.9953H27.7308L29.1494 36.4235L30.5113 33.9953H32.2705V39.9247H30.9369V35.7459L29.1494 38.7388L27.3335 35.7459Z" fill="#D8DADC"/>
<path d="M34.739 33.9953H33.4054V39.9247H34.739V33.9953Z" fill="#D8DADC"/>
<path d="M38.2856 35.2376V39.9247H36.9237V35.2376H35.3348V33.9953H39.9029V35.2376H38.2856Z" fill="#D8DADC"/>
<path d="M40.3852 39.8682V38.6259C40.669 38.6824 41.3216 38.7953 42.1444 38.7953C42.8253 38.7953 43.1658 38.7106 43.1658 38.3153C43.1658 37.8918 42.8821 37.8353 41.9174 37.3835C40.9811 36.96 40.2718 36.5929 40.2718 35.5765C40.2718 34.3341 41.0378 33.9106 42.5132 33.9106C43.2793 33.9106 43.8184 33.9671 44.1873 34.0235V35.2659C43.8468 35.2376 43.2509 35.1529 42.57 35.1529C41.7755 35.1529 41.6053 35.2376 41.6053 35.5765C41.6053 35.9153 42.0309 36.0847 42.6835 36.3671C43.6765 36.8188 44.471 37.1859 44.471 38.3153C44.471 39.5012 43.7333 40.0376 42.1444 40.0376C41.5202 40.0094 40.9527 39.9529 40.3852 39.8682Z" fill="#D8DADC"/>
<path d="M45.2938 37.92V33.9953H46.6274V37.8635C46.6274 38.5412 47.0246 38.7671 47.6772 38.7671C48.3014 38.7671 48.727 38.5412 48.727 37.8635V33.9953H50.0605V37.92C50.0605 39.36 49.1242 40.0094 47.6772 40.0094C46.2301 40.0094 45.2938 39.36 45.2938 37.92Z" fill="#D8DADC"/>
<path d="M51.1955 33.9953H53.8058C55.0259 33.9953 55.7068 34.4471 55.7068 35.52C55.7068 36.3671 55.2245 36.6494 54.7705 36.8188C55.3096 36.9882 55.877 37.2706 55.877 38.2588C55.877 39.3035 55.2528 39.9247 53.9193 39.9247H51.2238V33.9953H51.1955ZM53.6072 36.3953C54.1463 36.3953 54.3449 36.1129 54.3449 35.7176C54.3449 35.2376 54.1179 35.1247 53.6072 35.1247H52.529V36.3953H53.6072ZM53.6923 38.8235C54.2314 38.8235 54.4584 38.6259 54.4584 38.1176C54.4584 37.6659 54.2598 37.4682 53.7491 37.4682H52.529V38.8235H53.6923Z" fill="#D8DADC"/>
<path d="M57.9767 33.9953H56.6431V39.9247H57.9767V33.9953Z" fill="#D8DADC"/>
<path d="M58.9414 39.8682V38.6259C59.2251 38.6824 59.8777 38.7953 60.7005 38.7953C61.3815 38.7953 61.7219 38.7106 61.7219 38.3153C61.7219 37.8918 61.4382 37.8353 60.4735 37.3835C59.5372 36.96 58.8279 36.5929 58.8279 35.5765C58.8279 34.3341 59.5939 33.9106 61.0694 33.9106C61.8354 33.9106 62.3745 33.9671 62.7434 34.0235V35.2659C62.4029 35.2376 61.8071 35.1529 61.1261 35.1529C60.3316 35.1529 60.1614 35.2376 60.1614 35.5765C60.1614 35.9153 60.587 36.0847 61.2396 36.3671C62.2327 36.8188 63.0271 37.1859 63.0271 38.3153C63.0271 39.5012 62.2894 40.0376 60.7005 40.0376C60.1047 40.0094 59.5088 39.9529 58.9414 39.8682Z" fill="#D8DADC"/>
<path d="M65.0984 39.9247H63.7648V33.9953H65.0984V36.3388H67.2264V33.9953H68.5599V39.9247H67.2264V37.5812H65.0984V39.9247Z" fill="#D8DADC"/>
<path d="M71 33.9953H69.6665V39.9247H71V33.9953Z" fill="#D8DADC"/>
<path d="M33.604 43.7365V47.9153H32.2421V41.9859H33.9729L35.3916 44.3859L36.7818 41.9859H38.541V47.9153H37.1791V43.7365L35.3916 46.7294L33.604 43.7365Z" fill="#D8DADC"/>
<path d="M39.4489 44.9506C39.4489 42.8329 40.2718 41.9012 42.0309 41.9012C43.79 41.9012 44.6129 42.8329 44.6129 44.9506C44.6129 47.0682 43.79 48 42.0309 48C40.2718 48 39.4489 47.0682 39.4489 44.9506ZM43.1942 44.9506C43.1942 43.7365 42.9956 43.1153 42.0025 43.1153C41.0378 43.1153 40.8108 43.7365 40.8108 44.9506C40.8108 46.1647 41.0095 46.7859 42.0025 46.7859C42.9956 46.7859 43.1942 46.1647 43.1942 44.9506Z" fill="#D8DADC"/>
<path d="M47.7623 43.2282V47.9153H46.4288V43.2282H44.8115V41.9859H49.3796V43.2282H47.7623Z" fill="#D8DADC"/>
<path d="M49.6066 44.9506C49.6066 42.8329 50.4294 41.9012 52.1885 41.9012C53.9477 41.9012 54.7705 42.8329 54.7705 44.9506C54.7705 47.0682 53.9477 48 52.1885 48C50.4294 48 49.6066 47.0682 49.6066 44.9506ZM53.3518 44.9506C53.3518 43.7365 53.1532 43.1153 52.1601 43.1153C51.1671 43.1153 50.9685 43.7365 50.9685 44.9506C50.9685 46.1647 51.1671 46.7859 52.1601 46.7859C53.1532 46.7859 53.3518 46.1647 53.3518 44.9506Z" fill="#D8DADC"/>
<path d="M55.6501 41.9859H58.0618C59.3386 41.9859 60.1614 42.4659 60.1614 43.8777C60.1614 44.8094 59.7074 45.4024 58.9414 45.5718L60.4168 47.9153H58.8562L57.6078 45.7976H57.012V47.9153H55.6784V41.9859H55.6501ZM58.005 44.64C58.6009 44.64 58.7995 44.3294 58.7995 43.8777C58.7995 43.4259 58.6009 43.1153 58.005 43.1153H57.012V44.64H58.005Z" fill="#D8DADC"/>
<path d="M60.9559 47.8306V46.5882C61.2396 46.6447 61.8922 46.7577 62.715 46.7577C63.396 46.7577 63.7364 46.6729 63.7364 46.2777C63.7364 45.8541 63.4527 45.7977 62.488 45.3459C61.5517 44.9224 60.8424 44.5553 60.8424 43.5388C60.8424 42.2965 61.6084 41.8729 63.0839 41.8729C63.8499 41.8729 64.389 41.9294 64.7579 41.9859V43.2282C64.4174 43.2 63.8216 43.1153 63.1406 43.1153C62.3461 43.1153 62.1759 43.2 62.1759 43.5106C62.1759 43.8494 62.6015 44.0188 63.2541 44.3012C64.2472 44.7529 65.0416 45.12 65.0416 46.2494C65.0416 47.4353 64.3039 47.9718 62.715 47.9718C62.1192 48 61.5233 47.9435 60.9559 47.8306Z" fill="#D8DADC"/>
<path d="M48.4149 19.68L54.1463 9.82588L48.4149 0L42.7119 9.82588L48.4149 19.68Z" fill="#D8DADC"/>
<path d="M48.4149 19.68L54.1463 29.5059H65.5523L59.8493 19.68L48.4149 19.68Z" fill="#D8DADC"/>
<path d="M48.4149 19.68L42.7119 29.5059H31.3058L37.0088 19.68L48.4149 19.68Z" fill="#D8DADC"/>
</g>
<defs>
<clipPath id="clip0_1_2569">
<rect width="96" height="48" fill="white" transform="translate(0 0.00195312)"/>
</clipPath>
</defs>
</svg>
