<svg width="96" height="48" viewBox="0 0 96 48" fill="none" xmlns="http://www.w3.org/2000/svg">
<path d="M51.9714 25.5983C51.9333 25.6078 51.781 25.6078 51.7143 25.6078H46.8V26.746H51.8C51.8381 26.746 52.1333 26.746 52.1905 26.7365C53.2095 26.6417 53.6762 25.7975 53.6762 25.0576C53.6762 24.2988 53.1905 23.483 52.2667 23.3977C52.0857 23.3787 51.9333 23.3787 51.8667 23.3787H48.6C48.4571 23.3787 48.2952 23.3692 48.2381 23.3502C47.981 23.2838 47.8857 23.0562 47.8857 22.8665C47.8857 22.6958 47.981 22.4681 48.2476 22.3922C48.3238 22.3733 48.4095 22.3638 48.5905 22.3638H53.3048V21.2445H48.5143C48.3143 21.2445 48.1619 21.254 48.0381 21.2729C47.219 21.3868 46.6476 22.0413 46.6476 22.876C46.6476 23.5589 47.0762 24.3557 48.019 24.4885C48.1905 24.5075 48.4286 24.5075 48.5333 24.5075H51.7143C51.7714 24.5075 51.9143 24.5075 51.9429 24.517C52.3048 24.5644 52.4286 24.83 52.4286 25.0671C52.4286 25.2948 52.2857 25.5414 51.9714 25.5983Z" fill="#D8DADC"/>
<path d="M42.6571 25.5983C42.619 25.6078 42.4667 25.6078 42.4095 25.6078H37.4857V26.746H42.4857C42.5238 26.746 42.819 26.746 42.8762 26.7365C43.8952 26.6417 44.3619 25.7975 44.3619 25.0576C44.3619 24.2988 43.8762 23.483 42.9524 23.3977C42.7714 23.3787 42.619 23.3787 42.5524 23.3787H39.2857C39.1429 23.3787 38.981 23.3692 38.9238 23.3502C38.6667 23.2838 38.5714 23.0562 38.5714 22.8665C38.5714 22.6958 38.6667 22.4681 38.9333 22.3922C39.0095 22.3733 39.0952 22.3638 39.2762 22.3638H43.9905V21.2445H39.2C39 21.2445 38.8476 21.254 38.7238 21.2729C37.9048 21.3868 37.3333 22.0413 37.3333 22.876C37.3333 23.5589 37.7619 24.3557 38.7048 24.4885C38.8762 24.5075 39.1143 24.5075 39.219 24.5075H42.4C42.4571 24.5075 42.6 24.5075 42.6286 24.517C42.9905 24.5644 43.1143 24.83 43.1143 25.0671C43.1143 25.2948 42.981 25.5414 42.6571 25.5983Z" fill="#D8DADC"/>
<path d="M34.9238 21.2065H33.6857V26.7745H34.9238V21.2065Z" fill="#D8DADC"/>
<path d="M30.9524 26.7745V21.2065H29.7143V25.3612L25.5905 21.2065H24V26.7745H25.2381V22.6009L29.3905 26.7745H30.9524Z" fill="#D8DADC"/>
<path d="M70.7714 21.2065V25.3612L66.6476 21.2065H65.0571V26.7745H66.2952V22.6009L70.4381 26.7745H72V21.2065H70.7714Z" fill="#D8DADC"/>
<path d="M58.6095 21.2065L55.1238 26.7745H56.6286L57.2476 25.7785H61.3143L61.9333 26.7745H63.4286L59.9429 21.2065H58.6095ZM60.6762 24.7256H57.8857L59.2857 22.4871L60.6762 24.7256Z" fill="#D8DADC"/>
<path d="M30.8857 18.0479C33.381 10.7916 40.2571 5.91605 48.0095 5.91605C55.7619 5.91605 62.6476 10.7916 65.1333 18.0479L65.1524 18.1048H70.6095V17.4503L68.3429 17.1847C66.9429 17.0235 66.6476 16.4069 66.2667 15.6291L66.1714 15.4394C62.8952 8.49609 55.7619 4 48.0095 4C40.2476 4 33.1238 8.49609 29.8476 15.4584L29.7524 15.6481C29.3714 16.4259 29.0762 17.0424 27.6762 17.2037L25.4095 17.4693V18.1238H30.8571L30.8857 18.0479Z" fill="#D8DADC"/>
<path d="M65.1524 29.8857L65.1333 29.9426C62.6381 37.199 55.7619 42.065 48.0095 42.065C40.2571 42.065 33.3714 37.1895 30.8857 29.9331L30.8667 29.8762H25.419V30.5307L27.6857 30.7963C29.0857 30.9576 29.381 31.5741 29.7619 32.3519L29.8571 32.5416C33.1333 39.5039 40.2667 44 48.0191 44C55.7714 44 62.9048 39.5039 66.181 32.5511L66.2762 32.3614C66.6571 31.5836 66.9524 30.967 68.3524 30.8058L70.6191 30.5402V29.8857H65.1524Z" fill="#D8DADC"/>
</svg>
