<svg width="96" height="48" viewBox="0 0 96 48" fill="none" xmlns="http://www.w3.org/2000/svg">
<path d="M26.4721 28.254C26.0655 28.3441 25.5686 28.3891 25.0717 28.3891C23.6261 28.3891 23.3099 27.8939 23.3099 26.9486V21.5016H20.5994V27.2637C20.5994 29.8296 22.045 31 24.9361 31C26.3365 31 27.6466 30.7299 29.2277 30.3698V21.5016H26.4721V28.254ZM35.281 28.5241C34.2872 28.5241 34.1517 28.074 34.1517 27.3087V23.7974H36.4104V21.5016H34.1517V18.8006H31.4412V21.5016H30.086V23.7524H31.4412V27.4437C31.4412 29.0643 31.7575 30.955 34.4679 30.955C35.281 30.955 35.9586 30.7749 36.7266 30.5498L36.4556 28.299C36.049 28.4341 35.6876 28.5241 35.281 28.5241ZM6.77613 23.4373C6.27921 23.2572 5.69195 23.0772 5.10468 22.8971C3.52359 22.4469 3.02667 22.2219 3.02667 21.5016C3.02667 20.6913 3.61393 20.2862 5.05951 20.2862C6.23404 20.2862 7.27304 20.6013 8.31205 20.9614L8.89931 18.3505C7.67961 17.9003 6.55026 17.4952 5.14986 17.4952C1.89732 17.4952 0.0903484 19.3408 0.0903484 21.5466C0.0903484 23.2122 0.813135 24.2926 2.43941 24.9678C2.89115 25.1479 3.47841 25.328 4.06568 25.508C5.82747 26.0482 6.36956 26.3183 6.36956 26.9936C6.36956 27.8039 5.69195 28.254 4.29155 28.254C3.02667 28.254 1.85214 27.8939 0.632439 27.3537L0 30.0547C1.35523 30.5949 2.66528 30.955 4.29155 30.955C7.63444 30.955 9.35106 29.1093 9.35106 26.8585C9.35106 25.0579 8.31205 24.0225 6.77613 23.4373ZM42.3734 21.0514C41.4699 21.0514 40.6116 21.2765 40.0243 21.4566V17H37.3139V30.955H40.0243V23.9775C40.5212 23.7974 41.0633 23.6174 41.7409 23.6174C42.78 23.6174 43.1865 24.0225 43.1865 25.0129V30.955H45.897V24.6978C45.897 22.2219 44.7676 21.0514 42.3734 21.0514ZM14.9075 21.0064C12.1519 21.0064 9.93832 22.9421 9.93832 25.9582C9.93832 28.9743 12.1519 31 14.9075 31C17.6631 31 19.8766 29.0193 19.8766 25.9582C19.8766 22.8971 17.6631 21.0064 14.9075 21.0064ZM14.9075 28.299C13.733 28.299 12.7843 27.4437 12.7843 25.9132C12.7843 24.3826 13.6878 23.5723 14.9075 23.5723C16.1272 23.5723 17.0307 24.3826 17.0307 25.9132C17.0307 27.4887 16.082 28.299 14.9075 28.299ZM75.7571 25.1929C75.3505 25.0579 74.944 24.9228 74.4471 24.7878C73.4984 24.5177 73.137 24.3826 73.137 23.9775C73.137 23.5723 73.4984 23.3023 74.3567 23.3023C75.2602 23.3023 76.0733 23.4823 76.9768 23.7524L77.4286 21.4116C76.4347 21.1865 75.4861 21.0064 74.4019 21.0064C71.827 21.0064 70.4266 22.3119 70.4266 24.1125C70.4266 25.373 71.059 26.1833 72.3239 26.7235C72.6853 26.8585 73.0918 27.0386 73.5888 27.1736C74.5826 27.4437 75.0795 27.5788 75.0795 28.0289C75.0795 28.4791 74.4922 28.6592 73.6791 28.6592C72.6853 28.6592 71.7818 28.4791 70.8331 28.119L70.4266 30.4598C71.6011 30.7749 72.6853 31 73.905 31C76.6154 31 77.8351 29.6045 77.8351 27.8489C77.7899 26.6334 77.293 25.7331 75.7571 25.1929ZM65.5929 21.0064C62.7469 21.0064 60.7141 22.9871 60.7141 26.1383C60.7141 29.0643 62.4759 31 65.6381 31C67.0385 31 68.1678 30.5949 69.3424 30.0997L68.9358 27.8489C68.0323 28.254 67.1288 28.5691 66.0447 28.5691C64.4184 28.5691 63.7408 27.8939 63.6504 26.9035H69.7489C69.7489 26.9035 69.8393 25.8232 69.8393 25.5981C69.8393 23.0322 68.4389 21.0064 65.5929 21.0064ZM63.6956 25.1029C63.8763 24.2926 64.2829 23.2572 65.4574 23.2572C66.6319 23.2572 66.9933 24.4277 66.9933 25.1029H63.6956ZM83.1657 28.5241C82.1718 28.5241 82.0363 28.074 82.0363 27.3087V23.7974H84.295V21.5016H82.0363V18.8006H79.3259V21.5016H77.9255V23.7974H79.3259V27.4887C79.3259 29.1093 79.7324 31 82.4429 31C83.256 31 83.9336 30.8199 84.7016 30.5949L84.3854 28.3441C83.9336 28.4341 83.5722 28.5241 83.1657 28.5241ZM84.9726 17.5402C84.295 17.5402 83.7981 18.0804 83.7529 18.7556C83.7078 19.4309 84.295 19.9711 84.9275 19.9711C85.6051 19.9711 86.1472 19.4309 86.1472 18.7556C86.1472 18.0804 85.6503 17.5402 84.9726 17.5402ZM84.9726 19.746C84.4306 19.746 84.024 19.3408 84.024 18.7556C84.024 18.1704 84.4306 17.7653 85.0178 17.7653C85.5599 17.7653 86.0117 18.1704 85.9665 18.7556C85.9213 19.3408 85.5147 19.746 84.9726 19.746ZM85.1082 18.8006C85.334 18.7556 85.4696 18.6656 85.4696 18.4405C85.4696 18.2154 85.2889 18.0354 85.0178 18.0354H84.5661V19.4309H84.8371V18.8457C84.9275 18.8457 84.9726 18.8907 85.0178 18.9807L85.334 19.4309H85.6503L85.3792 18.9807C85.1985 18.8907 85.1533 18.8457 85.1082 18.8006ZM84.9275 18.6656H84.7919V18.2605H84.9726C85.1533 18.2605 85.1985 18.3505 85.1985 18.4405C85.1985 18.6206 85.063 18.6656 84.9275 18.6656ZM58.1843 21.5016L56.4677 26.6785L54.7511 21.5016H52.4021L50.6403 26.6785L48.9236 21.5016H45.9873L49.3754 30.955H51.86L53.5766 25.8232L55.2932 30.955H57.7778L61.1659 21.5016H58.1843Z" fill="#D8DADC"/>
<path d="M86.0568 24.2476C86.0568 26.7685 88.7673 29.1543 91.026 30.7299C91.7036 30.2797 92.3812 29.7396 93.0136 29.1994C89.987 26.6785 87.0958 24.3826 86.102 23.5723C86.102 23.7524 86.0568 23.9775 86.0568 24.2476Z" fill="#D8DADC"/>
<path d="M95.8596 25.418C93.6461 23.6174 92.3361 22.672 90.8905 21.8167C90.4839 21.5916 89.716 21.2315 88.8577 21.2315C88.0445 21.2315 87.3217 21.5016 86.8248 21.9968C86.5086 22.3119 86.2827 22.717 86.1924 23.2122C87.3217 24.0225 90.4387 26.2283 93.5558 28.7042C94.5948 27.7138 95.4531 26.5884 95.8596 25.418Z" fill="#D8DADC"/>
<path d="M95.2723 21.9968C94.7754 21.5016 94.0978 21.2315 93.2847 21.2315C92.4264 21.2315 91.7939 21.5016 91.297 21.7717C92.1553 22.2669 94.0075 23.3023 95.95 24.7428C95.9951 24.5627 95.9951 24.3376 95.9951 24.1576C96.0403 23.2572 95.7693 22.492 95.2723 21.9968Z" fill="#D8DADC"/>
</svg>
